<svg width="970" height="396" viewBox="0 0 970 396" fill="none" xmlns="http://www.w3.org/2000/svg">
<g filter="url(#filter0_d_447_2449)">
<rect x="4" width="962" height="388" rx="15" fill="#FFF4F4"/>
</g>
<path d="M39.93 323.465C39.93 321.745 40.21 320.405 40.77 319.445C41.33 318.475 42.31 317.99 43.71 317.99C45.1 317.99 46.075 318.475 46.635 319.445C47.195 320.405 47.475 321.745 47.475 323.465C47.475 325.215 47.195 326.575 46.635 327.545C46.075 328.515 45.1 329 43.71 329C42.31 329 41.33 328.515 40.77 327.545C40.21 326.575 39.93 325.215 39.93 323.465ZM46.125 323.465C46.125 322.595 46.065 321.86 45.945 321.26C45.835 320.65 45.6 320.16 45.24 319.79C44.89 319.42 44.38 319.235 43.71 319.235C43.03 319.235 42.51 319.42 42.15 319.79C41.8 320.16 41.565 320.65 41.445 321.26C41.335 321.86 41.28 322.595 41.28 323.465C41.28 324.365 41.335 325.12 41.445 325.73C41.565 326.34 41.8 326.83 42.15 327.2C42.51 327.57 43.03 327.755 43.71 327.755C44.38 327.755 44.89 327.57 45.24 327.2C45.6 326.83 45.835 326.34 45.945 325.73C46.065 325.12 46.125 324.365 46.125 323.465Z" fill="black" fill-opacity="0.54"/>
<path d="M112.577 338.545V346.27C112.577 347.13 112.312 347.82 111.782 348.34C111.252 348.85 110.552 349.105 109.682 349.105C108.802 349.105 108.097 348.845 107.567 348.325C107.037 347.795 106.772 347.075 106.772 346.165H108.137C108.147 346.675 108.277 347.09 108.527 347.41C108.787 347.73 109.172 347.89 109.682 347.89C110.192 347.89 110.572 347.74 110.822 347.44C111.072 347.13 111.197 346.74 111.197 346.27V338.545H112.577ZM114.756 344.86C114.756 344.02 114.926 343.285 115.266 342.655C115.606 342.015 116.071 341.52 116.661 341.17C117.261 340.82 117.926 340.645 118.656 340.645C119.376 340.645 120.001 340.8 120.531 341.11C121.061 341.42 121.456 341.81 121.716 342.28V340.78H123.096V349H121.716V347.47C121.446 347.95 121.041 348.35 120.501 348.67C119.971 348.98 119.351 349.135 118.641 349.135C117.911 349.135 117.251 348.955 116.661 348.595C116.071 348.235 115.606 347.73 115.266 347.08C114.926 346.43 114.756 345.69 114.756 344.86ZM121.716 344.875C121.716 344.255 121.591 343.715 121.341 343.255C121.091 342.795 120.751 342.445 120.321 342.205C119.901 341.955 119.436 341.83 118.926 341.83C118.416 341.83 117.951 341.95 117.531 342.19C117.111 342.43 116.776 342.78 116.526 343.24C116.276 343.7 116.151 344.24 116.151 344.86C116.151 345.49 116.276 346.04 116.526 346.51C116.776 346.97 117.111 347.325 117.531 347.575C117.951 347.815 118.416 347.935 118.926 347.935C119.436 347.935 119.901 347.815 120.321 347.575C120.751 347.325 121.091 346.97 121.341 346.51C121.591 346.04 121.716 345.495 121.716 344.875ZM129.408 340.63C130.408 340.63 131.218 340.935 131.838 341.545C132.458 342.145 132.768 343.015 132.768 344.155V349H131.418V344.35C131.418 343.53 131.213 342.905 130.803 342.475C130.393 342.035 129.833 341.815 129.123 341.815C128.403 341.815 127.828 342.04 127.398 342.49C126.978 342.94 126.768 343.595 126.768 344.455V349H125.403V340.78H126.768V341.95C127.038 341.53 127.403 341.205 127.863 340.975C128.333 340.745 128.848 340.63 129.408 340.63Z" fill="black" fill-opacity="0.54"/>
<path d="M183.566 338.545V339.655H179.021V343.18H182.711V344.29H179.021V349H177.656V338.545H183.566ZM192.715 344.575C192.715 344.835 192.7 345.11 192.67 345.4H186.1C186.15 346.21 186.425 346.845 186.925 347.305C187.435 347.755 188.05 347.98 188.77 347.98C189.36 347.98 189.85 347.845 190.24 347.575C190.64 347.295 190.92 346.925 191.08 346.465H192.55C192.33 347.255 191.89 347.9 191.23 348.4C190.57 348.89 189.75 349.135 188.77 349.135C187.99 349.135 187.29 348.96 186.67 348.61C186.06 348.26 185.58 347.765 185.23 347.125C184.88 346.475 184.705 345.725 184.705 344.875C184.705 344.025 184.875 343.28 185.215 342.64C185.555 342 186.03 341.51 186.64 341.17C187.26 340.82 187.97 340.645 188.77 340.645C189.55 340.645 190.24 340.815 190.84 341.155C191.44 341.495 191.9 341.965 192.22 342.565C192.55 343.155 192.715 343.825 192.715 344.575ZM191.305 344.29C191.305 343.77 191.19 343.325 190.96 342.955C190.73 342.575 190.415 342.29 190.015 342.1C189.625 341.9 189.19 341.8 188.71 341.8C188.02 341.8 187.43 342.02 186.94 342.46C186.46 342.9 186.185 343.51 186.115 344.29H191.305ZM195.882 342.31C196.162 341.82 196.572 341.42 197.112 341.11C197.652 340.8 198.267 340.645 198.957 340.645C199.697 340.645 200.362 340.82 200.952 341.17C201.542 341.52 202.007 342.015 202.347 342.655C202.687 343.285 202.857 344.02 202.857 344.86C202.857 345.69 202.687 346.43 202.347 347.08C202.007 347.73 201.537 348.235 200.937 348.595C200.347 348.955 199.687 349.135 198.957 349.135C198.247 349.135 197.622 348.98 197.082 348.67C196.552 348.36 196.152 347.965 195.882 347.485V349H194.517V337.9H195.882V342.31ZM201.462 344.86C201.462 344.24 201.337 343.7 201.087 343.24C200.837 342.78 200.497 342.43 200.067 342.19C199.647 341.95 199.182 341.83 198.672 341.83C198.172 341.83 197.707 341.955 197.277 342.205C196.857 342.445 196.517 342.8 196.257 343.27C196.007 343.73 195.882 344.265 195.882 344.875C195.882 345.495 196.007 346.04 196.257 346.51C196.517 346.97 196.857 347.325 197.277 347.575C197.707 347.815 198.172 347.935 198.672 347.935C199.182 347.935 199.647 347.815 200.067 347.575C200.497 347.325 200.837 346.97 201.087 346.51C201.337 346.04 201.462 345.49 201.462 344.86Z" fill="black" fill-opacity="0.54"/>
<path d="M257.434 338.62V349H256.069V341.26L252.619 349H251.659L248.194 341.245V349H246.829V338.62H248.299L252.139 347.2L255.979 338.62H257.434ZM259.239 344.86C259.239 344.02 259.409 343.285 259.749 342.655C260.089 342.015 260.554 341.52 261.144 341.17C261.744 340.82 262.409 340.645 263.139 340.645C263.859 340.645 264.484 340.8 265.014 341.11C265.544 341.42 265.939 341.81 266.199 342.28V340.78H267.579V349H266.199V347.47C265.929 347.95 265.524 348.35 264.984 348.67C264.454 348.98 263.834 349.135 263.124 349.135C262.394 349.135 261.734 348.955 261.144 348.595C260.554 348.235 260.089 347.73 259.749 347.08C259.409 346.43 259.239 345.69 259.239 344.86ZM266.199 344.875C266.199 344.255 266.074 343.715 265.824 343.255C265.574 342.795 265.234 342.445 264.804 342.205C264.384 341.955 263.919 341.83 263.409 341.83C262.899 341.83 262.434 341.95 262.014 342.19C261.594 342.43 261.259 342.78 261.009 343.24C260.759 343.7 260.634 344.24 260.634 344.86C260.634 345.49 260.759 346.04 261.009 346.51C261.259 346.97 261.594 347.325 262.014 347.575C262.434 347.815 262.899 347.935 263.409 347.935C263.919 347.935 264.384 347.815 264.804 347.575C265.234 347.325 265.574 346.97 265.824 346.51C266.074 346.04 266.199 345.495 266.199 344.875ZM271.25 342.115C271.49 341.645 271.83 341.28 272.27 341.02C272.72 340.76 273.265 340.63 273.905 340.63V342.04H273.545C272.015 342.04 271.25 342.87 271.25 344.53V349H269.885V340.78H271.25V342.115Z" fill="black" fill-opacity="0.54"/>
<path d="M324.415 346.675H319.855L319.015 349H317.575L321.355 338.605H322.93L326.695 349H325.255L324.415 346.675ZM324.025 345.565L322.135 340.285L320.245 345.565H324.025ZM329.708 342.295C329.978 341.825 330.378 341.435 330.908 341.125C331.448 340.805 332.073 340.645 332.783 340.645C333.513 340.645 334.173 340.82 334.762 341.17C335.362 341.52 335.833 342.015 336.173 342.655C336.513 343.285 336.683 344.02 336.683 344.86C336.683 345.69 336.513 346.43 336.173 347.08C335.833 347.73 335.362 348.235 334.762 348.595C334.173 348.955 333.513 349.135 332.783 349.135C332.083 349.135 331.463 348.98 330.923 348.67C330.393 348.35 329.988 347.955 329.708 347.485V352.9H328.343V340.78H329.708V342.295ZM335.288 344.86C335.288 344.24 335.163 343.7 334.913 343.24C334.663 342.78 334.323 342.43 333.893 342.19C333.473 341.95 333.008 341.83 332.498 341.83C331.998 341.83 331.533 341.955 331.103 342.205C330.683 342.445 330.343 342.8 330.083 343.27C329.833 343.73 329.708 344.265 329.708 344.875C329.708 345.495 329.833 346.04 330.083 346.51C330.343 346.97 330.683 347.325 331.103 347.575C331.533 347.815 331.998 347.935 332.498 347.935C333.008 347.935 333.473 347.815 333.893 347.575C334.323 347.325 334.663 346.97 334.913 346.51C335.163 346.04 335.288 345.49 335.288 344.86ZM339.844 342.115C340.084 341.645 340.424 341.28 340.864 341.02C341.314 340.76 341.859 340.63 342.499 340.63V342.04H342.139C340.609 342.04 339.844 342.87 339.844 344.53V349H338.479V340.78H339.844V342.115Z" fill="black" fill-opacity="0.54"/>
<path d="M398.803 338.62V349H397.438V341.26L393.988 349H393.028L389.563 341.245V349H388.198V338.62H389.668L393.508 347.2L397.348 338.62H398.803ZM408.618 344.575C408.618 344.835 408.603 345.11 408.573 345.4H402.003C402.053 346.21 402.328 346.845 402.828 347.305C403.338 347.755 403.953 347.98 404.673 347.98C405.263 347.98 405.753 347.845 406.143 347.575C406.543 347.295 406.823 346.925 406.983 346.465H408.453C408.233 347.255 407.793 347.9 407.133 348.4C406.473 348.89 405.653 349.135 404.673 349.135C403.893 349.135 403.193 348.96 402.573 348.61C401.963 348.26 401.483 347.765 401.133 347.125C400.783 346.475 400.608 345.725 400.608 344.875C400.608 344.025 400.778 343.28 401.118 342.64C401.458 342 401.933 341.51 402.543 341.17C403.163 340.82 403.873 340.645 404.673 340.645C405.453 340.645 406.143 340.815 406.743 341.155C407.343 341.495 407.803 341.965 408.123 342.565C408.453 343.155 408.618 343.825 408.618 344.575ZM407.208 344.29C407.208 343.77 407.093 343.325 406.863 342.955C406.633 342.575 406.318 342.29 405.918 342.1C405.528 341.9 405.093 341.8 404.613 341.8C403.923 341.8 403.333 342.02 402.843 342.46C402.363 342.9 402.088 343.51 402.018 344.29H407.208ZM411.125 339.445C410.865 339.445 410.645 339.355 410.465 339.175C410.285 338.995 410.195 338.775 410.195 338.515C410.195 338.255 410.285 338.035 410.465 337.855C410.645 337.675 410.865 337.585 411.125 337.585C411.375 337.585 411.585 337.675 411.755 337.855C411.935 338.035 412.025 338.255 412.025 338.515C412.025 338.775 411.935 338.995 411.755 339.175C411.585 339.355 411.375 339.445 411.125 339.445ZM411.785 340.78V349H410.42V340.78H411.785Z" fill="black" fill-opacity="0.54"/>
<path d="M462.848 338.545V346.27C462.848 347.13 462.583 347.82 462.053 348.34C461.523 348.85 460.823 349.105 459.953 349.105C459.073 349.105 458.368 348.845 457.838 348.325C457.308 347.795 457.043 347.075 457.043 346.165H458.408C458.418 346.675 458.548 347.09 458.798 347.41C459.058 347.73 459.443 347.89 459.953 347.89C460.463 347.89 460.843 347.74 461.093 347.44C461.343 347.13 461.468 346.74 461.468 346.27V338.545H462.848ZM472.827 340.78V349H471.462V347.785C471.202 348.205 470.837 348.535 470.367 348.775C469.907 349.005 469.397 349.12 468.837 349.12C468.197 349.12 467.622 348.99 467.112 348.73C466.602 348.46 466.197 348.06 465.897 347.53C465.607 347 465.462 346.355 465.462 345.595V340.78H466.812V345.415C466.812 346.225 467.017 346.85 467.427 347.29C467.837 347.72 468.397 347.935 469.107 347.935C469.837 347.935 470.412 347.71 470.832 347.26C471.252 346.81 471.462 346.155 471.462 345.295V340.78H472.827ZM479.137 340.63C480.137 340.63 480.947 340.935 481.567 341.545C482.187 342.145 482.497 343.015 482.497 344.155V349H481.147V344.35C481.147 343.53 480.942 342.905 480.532 342.475C480.122 342.035 479.562 341.815 478.852 341.815C478.132 341.815 477.557 342.04 477.127 342.49C476.707 342.94 476.497 343.595 476.497 344.455V349H475.132V340.78H476.497V341.95C476.767 341.53 477.132 341.205 477.592 340.975C478.062 340.745 478.577 340.63 479.137 340.63Z" fill="black" fill-opacity="0.54"/>
<path d="M536.3 338.545V346.27C536.3 347.13 536.035 347.82 535.505 348.34C534.975 348.85 534.275 349.105 533.405 349.105C532.525 349.105 531.82 348.845 531.29 348.325C530.76 347.795 530.495 347.075 530.495 346.165H531.86C531.87 346.675 532 347.09 532.25 347.41C532.51 347.73 532.895 347.89 533.405 347.89C533.915 347.89 534.295 347.74 534.545 347.44C534.795 347.13 534.92 346.74 534.92 346.27V338.545H536.3ZM546.279 340.78V349H544.914V347.785C544.654 348.205 544.289 348.535 543.819 348.775C543.359 349.005 542.849 349.12 542.289 349.12C541.649 349.12 541.074 348.99 540.564 348.73C540.054 348.46 539.649 348.06 539.349 347.53C539.059 347 538.914 346.355 538.914 345.595V340.78H540.264V345.415C540.264 346.225 540.469 346.85 540.879 347.29C541.289 347.72 541.849 347.935 542.559 347.935C543.289 347.935 543.864 347.71 544.284 347.26C544.704 346.81 544.914 346.155 544.914 345.295V340.78H546.279ZM549.949 337.9V349H548.584V337.9H549.949Z" fill="black" fill-opacity="0.54"/>
<path d="M603.794 346.675H599.234L598.394 349H596.954L600.734 338.605H602.309L606.074 349H604.634L603.794 346.675ZM603.404 345.565L601.514 340.285L599.624 345.565H603.404ZM611.112 340.645C611.822 340.645 612.442 340.8 612.972 341.11C613.512 341.42 613.912 341.81 614.172 342.28V340.78H615.552V349.18C615.552 349.93 615.392 350.595 615.072 351.175C614.752 351.765 614.292 352.225 613.692 352.555C613.102 352.885 612.412 353.05 611.622 353.05C610.542 353.05 609.642 352.795 608.922 352.285C608.202 351.775 607.777 351.08 607.647 350.2H608.997C609.147 350.7 609.457 351.1 609.927 351.4C610.397 351.71 610.962 351.865 611.622 351.865C612.372 351.865 612.982 351.63 613.452 351.16C613.932 350.69 614.172 350.03 614.172 349.18V347.455C613.902 347.935 613.502 348.335 612.972 348.655C612.442 348.975 611.822 349.135 611.112 349.135C610.382 349.135 609.717 348.955 609.117 348.595C608.527 348.235 608.062 347.73 607.722 347.08C607.382 346.43 607.212 345.69 607.212 344.86C607.212 344.02 607.382 343.285 607.722 342.655C608.062 342.015 608.527 341.52 609.117 341.17C609.717 340.82 610.382 340.645 611.112 340.645ZM614.172 344.875C614.172 344.255 614.047 343.715 613.797 343.255C613.547 342.795 613.207 342.445 612.777 342.205C612.357 341.955 611.892 341.83 611.382 341.83C610.872 341.83 610.407 341.95 609.987 342.19C609.567 342.43 609.232 342.78 608.982 343.24C608.732 343.7 608.607 344.24 608.607 344.86C608.607 345.49 608.732 346.04 608.982 346.51C609.232 346.97 609.567 347.325 609.987 347.575C610.407 347.815 610.872 347.935 611.382 347.935C611.892 347.935 612.357 347.815 612.777 347.575C613.207 347.325 613.547 346.97 613.797 346.51C614.047 346.04 614.172 345.495 614.172 344.875ZM620.769 349.135C620.139 349.135 619.574 349.03 619.074 348.82C618.574 348.6 618.179 348.3 617.889 347.92C617.599 347.53 617.439 347.085 617.409 346.585H618.819C618.859 346.995 619.049 347.33 619.389 347.59C619.739 347.85 620.194 347.98 620.754 347.98C621.274 347.98 621.684 347.865 621.984 347.635C622.284 347.405 622.434 347.115 622.434 346.765C622.434 346.405 622.274 346.14 621.954 345.97C621.634 345.79 621.139 345.615 620.469 345.445C619.859 345.285 619.359 345.125 618.969 344.965C618.589 344.795 618.259 344.55 617.979 344.23C617.709 343.9 617.574 343.47 617.574 342.94C617.574 342.52 617.699 342.135 617.949 341.785C618.199 341.435 618.554 341.16 619.014 340.96C619.474 340.75 619.999 340.645 620.589 340.645C621.499 340.645 622.234 340.875 622.794 341.335C623.354 341.795 623.654 342.425 623.694 343.225H622.329C622.299 342.795 622.124 342.45 621.804 342.19C621.494 341.93 621.074 341.8 620.544 341.8C620.054 341.8 619.664 341.905 619.374 342.115C619.084 342.325 618.939 342.6 618.939 342.94C618.939 343.21 619.024 343.435 619.194 343.615C619.374 343.785 619.594 343.925 619.854 344.035C620.124 344.135 620.494 344.25 620.964 344.38C621.554 344.54 622.034 344.7 622.404 344.86C622.774 345.01 623.089 345.24 623.349 345.55C623.619 345.86 623.759 346.265 623.769 346.765C623.769 347.215 623.644 347.62 623.394 347.98C623.144 348.34 622.789 348.625 622.329 348.835C621.879 349.035 621.359 349.135 620.769 349.135Z" fill="black" fill-opacity="0.54"/>
<path d="M671.349 349.105C670.659 349.105 670.039 348.985 669.489 348.745C668.949 348.495 668.524 348.155 668.214 347.725C667.904 347.285 667.744 346.78 667.734 346.21H669.189C669.239 346.7 669.439 347.115 669.789 347.455C670.149 347.785 670.669 347.95 671.349 347.95C671.999 347.95 672.509 347.79 672.879 347.47C673.259 347.14 673.449 346.72 673.449 346.21C673.449 345.81 673.339 345.485 673.119 345.235C672.899 344.985 672.624 344.795 672.294 344.665C671.964 344.535 671.519 344.395 670.959 344.245C670.269 344.065 669.714 343.885 669.294 343.705C668.884 343.525 668.529 343.245 668.229 342.865C667.939 342.475 667.794 341.955 667.794 341.305C667.794 340.735 667.939 340.23 668.229 339.79C668.519 339.35 668.924 339.01 669.444 338.77C669.974 338.53 670.579 338.41 671.259 338.41C672.239 338.41 673.039 338.655 673.659 339.145C674.289 339.635 674.644 340.285 674.724 341.095H673.224C673.174 340.695 672.964 340.345 672.594 340.045C672.224 339.735 671.734 339.58 671.124 339.58C670.554 339.58 670.089 339.73 669.729 340.03C669.369 340.32 669.189 340.73 669.189 341.26C669.189 341.64 669.294 341.95 669.504 342.19C669.724 342.43 669.989 342.615 670.299 342.745C670.619 342.865 671.064 343.005 671.634 343.165C672.324 343.355 672.879 343.545 673.299 343.735C673.719 343.915 674.079 344.2 674.379 344.59C674.679 344.97 674.829 345.49 674.829 346.15C674.829 346.66 674.694 347.14 674.424 347.59C674.154 348.04 673.754 348.405 673.224 348.685C672.694 348.965 672.069 349.105 671.349 349.105ZM684.338 344.575C684.338 344.835 684.323 345.11 684.293 345.4H677.723C677.773 346.21 678.048 346.845 678.548 347.305C679.058 347.755 679.673 347.98 680.393 347.98C680.983 347.98 681.473 347.845 681.863 347.575C682.263 347.295 682.543 346.925 682.703 346.465H684.173C683.953 347.255 683.513 347.9 682.853 348.4C682.193 348.89 681.373 349.135 680.393 349.135C679.613 349.135 678.913 348.96 678.293 348.61C677.683 348.26 677.203 347.765 676.853 347.125C676.503 346.475 676.328 345.725 676.328 344.875C676.328 344.025 676.498 343.28 676.838 342.64C677.178 342 677.653 341.51 678.263 341.17C678.883 340.82 679.593 340.645 680.393 340.645C681.173 340.645 681.863 340.815 682.463 341.155C683.063 341.495 683.523 341.965 683.843 342.565C684.173 343.155 684.338 343.825 684.338 344.575ZM682.928 344.29C682.928 343.77 682.813 343.325 682.583 342.955C682.353 342.575 682.038 342.29 681.638 342.1C681.248 341.9 680.813 341.8 680.333 341.8C679.643 341.8 679.053 342.02 678.563 342.46C678.083 342.9 677.808 343.51 677.738 344.29H682.928ZM687.504 342.295C687.774 341.825 688.174 341.435 688.704 341.125C689.244 340.805 689.869 340.645 690.579 340.645C691.309 340.645 691.969 340.82 692.559 341.17C693.159 341.52 693.629 342.015 693.969 342.655C694.309 343.285 694.479 344.02 694.479 344.86C694.479 345.69 694.309 346.43 693.969 347.08C693.629 347.73 693.159 348.235 692.559 348.595C691.969 348.955 691.309 349.135 690.579 349.135C689.879 349.135 689.259 348.98 688.719 348.67C688.189 348.35 687.784 347.955 687.504 347.485V352.9H686.139V340.78H687.504V342.295ZM693.084 344.86C693.084 344.24 692.959 343.7 692.709 343.24C692.459 342.78 692.119 342.43 691.689 342.19C691.269 341.95 690.804 341.83 690.294 341.83C689.794 341.83 689.329 341.955 688.899 342.205C688.479 342.445 688.139 342.8 687.879 343.27C687.629 343.73 687.504 344.265 687.504 344.875C687.504 345.495 687.629 346.04 687.879 346.51C688.139 346.97 688.479 347.325 688.899 347.575C689.329 347.815 689.794 347.935 690.294 347.935C690.804 347.935 691.269 347.815 691.689 347.575C692.119 347.325 692.459 346.97 692.709 346.51C692.959 346.04 693.084 345.49 693.084 344.86Z" fill="black" fill-opacity="0.54"/>
<path d="M744.407 349.105C743.437 349.105 742.552 348.88 741.752 348.43C740.952 347.97 740.317 347.335 739.847 346.525C739.387 345.705 739.157 344.785 739.157 343.765C739.157 342.745 739.387 341.83 739.847 341.02C740.317 340.2 740.952 339.565 741.752 339.115C742.552 338.655 743.437 338.425 744.407 338.425C745.387 338.425 746.277 338.655 747.077 339.115C747.877 339.565 748.507 340.195 748.967 341.005C749.427 341.815 749.657 342.735 749.657 343.765C749.657 344.795 749.427 345.715 748.967 346.525C748.507 347.335 747.877 347.97 747.077 348.43C746.277 348.88 745.387 349.105 744.407 349.105ZM744.407 347.92C745.137 347.92 745.792 347.75 746.372 347.41C746.962 347.07 747.422 346.585 747.752 345.955C748.092 345.325 748.262 344.595 748.262 343.765C748.262 342.925 748.092 342.195 747.752 341.575C747.422 340.945 746.967 340.46 746.387 340.12C745.807 339.78 745.147 339.61 744.407 339.61C743.667 339.61 743.007 339.78 742.427 340.12C741.847 340.46 741.387 340.945 741.047 341.575C740.717 342.195 740.552 342.925 740.552 343.765C740.552 344.595 740.717 345.325 741.047 345.955C741.387 346.585 741.847 347.07 742.427 347.41C743.017 347.75 743.677 347.92 744.407 347.92ZM756.049 349L752.824 345.37V349H751.459V337.9H752.824V344.425L755.989 340.78H757.894L754.024 344.875L757.909 349H756.049ZM760.844 341.905V346.75C760.844 347.15 760.929 347.435 761.099 347.605C761.269 347.765 761.564 347.845 761.984 347.845H762.989V349H761.759C760.999 349 760.429 348.825 760.049 348.475C759.669 348.125 759.479 347.55 759.479 346.75V341.905H758.414V340.78H759.479V338.71H760.844V340.78H762.989V341.905H760.844Z" fill="black" fill-opacity="0.54"/>
<path d="M816.1 349H814.735L809.245 340.675V349H807.88V338.53H809.245L814.735 346.84V338.53H816.1V349ZM822.012 349.135C821.242 349.135 820.542 348.96 819.912 348.61C819.292 348.26 818.802 347.765 818.442 347.125C818.092 346.475 817.917 345.725 817.917 344.875C817.917 344.035 818.097 343.295 818.457 342.655C818.827 342.005 819.327 341.51 819.957 341.17C820.587 340.82 821.292 340.645 822.072 340.645C822.852 340.645 823.557 340.82 824.187 341.17C824.817 341.51 825.312 342 825.672 342.64C826.042 343.28 826.227 344.025 826.227 344.875C826.227 345.725 826.037 346.475 825.657 347.125C825.287 347.765 824.782 348.26 824.142 348.61C823.502 348.96 822.792 349.135 822.012 349.135ZM822.012 347.935C822.502 347.935 822.962 347.82 823.392 347.59C823.822 347.36 824.167 347.015 824.427 346.555C824.697 346.095 824.832 345.535 824.832 344.875C824.832 344.215 824.702 343.655 824.442 343.195C824.182 342.735 823.842 342.395 823.422 342.175C823.002 341.945 822.547 341.83 822.057 341.83C821.557 341.83 821.097 341.945 820.677 342.175C820.267 342.395 819.937 342.735 819.687 343.195C819.437 343.655 819.312 344.215 819.312 344.875C819.312 345.545 819.432 346.11 819.672 346.57C819.922 347.03 820.252 347.375 820.662 347.605C821.072 347.825 821.522 347.935 822.012 347.935ZM831.082 347.74L833.632 340.78H835.087L831.862 349H830.272L827.047 340.78H828.517L831.082 347.74Z" fill="black" fill-opacity="0.54"/>
<path d="M881.538 338.545C882.678 338.545 883.663 338.76 884.493 339.19C885.333 339.61 885.973 340.215 886.413 341.005C886.863 341.795 887.088 342.725 887.088 343.795C887.088 344.865 886.863 345.795 886.413 346.585C885.973 347.365 885.333 347.965 884.493 348.385C883.663 348.795 882.678 349 881.538 349H878.283V338.545H881.538ZM881.538 347.875C882.888 347.875 883.918 347.52 884.628 346.81C885.338 346.09 885.693 345.085 885.693 343.795C885.693 342.495 885.333 341.48 884.613 340.75C883.903 340.02 882.878 339.655 881.538 339.655H879.648V347.875H881.538ZM896.388 344.575C896.388 344.835 896.373 345.11 896.343 345.4H889.773C889.823 346.21 890.098 346.845 890.598 347.305C891.108 347.755 891.723 347.98 892.443 347.98C893.033 347.98 893.523 347.845 893.913 347.575C894.313 347.295 894.593 346.925 894.753 346.465H896.223C896.003 347.255 895.563 347.9 894.903 348.4C894.243 348.89 893.423 349.135 892.443 349.135C891.663 349.135 890.963 348.96 890.343 348.61C889.733 348.26 889.253 347.765 888.903 347.125C888.553 346.475 888.378 345.725 888.378 344.875C888.378 344.025 888.548 343.28 888.888 342.64C889.228 342 889.703 341.51 890.313 341.17C890.933 340.82 891.643 340.645 892.443 340.645C893.223 340.645 893.913 340.815 894.513 341.155C895.113 341.495 895.573 341.965 895.893 342.565C896.223 343.155 896.388 343.825 896.388 344.575ZM894.978 344.29C894.978 343.77 894.863 343.325 894.633 342.955C894.403 342.575 894.088 342.29 893.688 342.1C893.298 341.9 892.863 341.8 892.383 341.8C891.693 341.8 891.103 342.02 890.613 342.46C890.133 342.9 889.858 343.51 889.788 344.29H894.978ZM901.1 349.135C900.47 349.135 899.905 349.03 899.405 348.82C898.905 348.6 898.51 348.3 898.22 347.92C897.93 347.53 897.77 347.085 897.74 346.585H899.15C899.19 346.995 899.38 347.33 899.72 347.59C900.07 347.85 900.525 347.98 901.085 347.98C901.605 347.98 902.015 347.865 902.315 347.635C902.615 347.405 902.765 347.115 902.765 346.765C902.765 346.405 902.605 346.14 902.285 345.97C901.965 345.79 901.47 345.615 900.8 345.445C900.19 345.285 899.69 345.125 899.3 344.965C898.92 344.795 898.59 344.55 898.31 344.23C898.04 343.9 897.905 343.47 897.905 342.94C897.905 342.52 898.03 342.135 898.28 341.785C898.53 341.435 898.885 341.16 899.345 340.96C899.805 340.75 900.33 340.645 900.92 340.645C901.83 340.645 902.565 340.875 903.125 341.335C903.685 341.795 903.985 342.425 904.025 343.225H902.66C902.63 342.795 902.455 342.45 902.135 342.19C901.825 341.93 901.405 341.8 900.875 341.8C900.385 341.8 899.995 341.905 899.705 342.115C899.415 342.325 899.27 342.6 899.27 342.94C899.27 343.21 899.355 343.435 899.525 343.615C899.705 343.785 899.925 343.925 900.185 344.035C900.455 344.135 900.825 344.25 901.295 344.38C901.885 344.54 902.365 344.7 902.735 344.86C903.105 345.01 903.42 345.24 903.68 345.55C903.95 345.86 904.09 346.265 904.1 346.765C904.1 347.215 903.975 347.62 903.725 347.98C903.475 348.34 903.12 348.625 902.66 348.835C902.21 349.035 901.69 349.135 901.1 349.135Z" fill="black" fill-opacity="0.54"/>
<path d="M46.845 284.34H41.58V287.76C41.81 287.44 42.15 287.18 42.6 286.98C43.05 286.77 43.535 286.665 44.055 286.665C44.885 286.665 45.56 286.84 46.08 287.19C46.6 287.53 46.97 287.975 47.19 288.525C47.42 289.065 47.535 289.64 47.535 290.25C47.535 290.97 47.4 291.615 47.13 292.185C46.86 292.755 46.445 293.205 45.885 293.535C45.335 293.865 44.65 294.03 43.83 294.03C42.78 294.03 41.93 293.76 41.28 293.22C40.63 292.68 40.235 291.96 40.095 291.06H41.43C41.56 291.63 41.835 292.075 42.255 292.395C42.675 292.715 43.205 292.875 43.845 292.875C44.635 292.875 45.23 292.64 45.63 292.17C46.03 291.69 46.23 291.06 46.23 290.28C46.23 289.5 46.03 288.9 45.63 288.48C45.23 288.05 44.64 287.835 43.86 287.835C43.33 287.835 42.865 287.965 42.465 288.225C42.075 288.475 41.79 288.82 41.61 289.26H40.32V283.14H46.845V284.34Z" fill="black" fill-opacity="0.54"/>
<path d="M39.57 249.4V248.155H42.39V259H41.01V249.4H39.57ZM44.7347 253.465C44.7347 251.745 45.0147 250.405 45.5747 249.445C46.1347 248.475 47.1147 247.99 48.5147 247.99C49.9047 247.99 50.8797 248.475 51.4397 249.445C51.9997 250.405 52.2797 251.745 52.2797 253.465C52.2797 255.215 51.9997 256.575 51.4397 257.545C50.8797 258.515 49.9047 259 48.5147 259C47.1147 259 46.1347 258.515 45.5747 257.545C45.0147 256.575 44.7347 255.215 44.7347 253.465ZM50.9297 253.465C50.9297 252.595 50.8697 251.86 50.7497 251.26C50.6397 250.65 50.4047 250.16 50.0447 249.79C49.6947 249.42 49.1847 249.235 48.5147 249.235C47.8347 249.235 47.3147 249.42 46.9547 249.79C46.6047 250.16 46.3697 250.65 46.2497 251.26C46.1397 251.86 46.0847 252.595 46.0847 253.465C46.0847 254.365 46.1397 255.12 46.2497 255.73C46.3697 256.34 46.6047 256.83 46.9547 257.2C47.3147 257.57 47.8347 257.755 48.5147 257.755C49.1847 257.755 49.6947 257.57 50.0447 257.2C50.4047 256.83 50.6397 256.34 50.7497 255.73C50.8697 255.12 50.9297 254.365 50.9297 253.465Z" fill="black" fill-opacity="0.54"/>
<path d="M39.57 214.4V213.155H42.39V224H41.01V214.4H39.57ZM51.6497 214.34H46.3847V217.76C46.6147 217.44 46.9547 217.18 47.4047 216.98C47.8547 216.77 48.3397 216.665 48.8597 216.665C49.6897 216.665 50.3647 216.84 50.8847 217.19C51.4047 217.53 51.7747 217.975 51.9947 218.525C52.2247 219.065 52.3397 219.64 52.3397 220.25C52.3397 220.97 52.2047 221.615 51.9347 222.185C51.6647 222.755 51.2497 223.205 50.6897 223.535C50.1397 223.865 49.4547 224.03 48.6347 224.03C47.5847 224.03 46.7347 223.76 46.0847 223.22C45.4347 222.68 45.0397 221.96 44.8997 221.06H46.2347C46.3647 221.63 46.6397 222.075 47.0597 222.395C47.4797 222.715 48.0097 222.875 48.6497 222.875C49.4397 222.875 50.0347 222.64 50.4347 222.17C50.8347 221.69 51.0347 221.06 51.0347 220.28C51.0347 219.5 50.8347 218.9 50.4347 218.48C50.0347 218.05 49.4447 217.835 48.6647 217.835C48.1347 217.835 47.6697 217.965 47.2697 218.225C46.8797 218.475 46.5947 218.82 46.4147 219.26H45.1247V213.14H51.6497V214.34Z" fill="black" fill-opacity="0.54"/>
<path d="M39.765 187.905C41.035 186.885 42.03 186.05 42.75 185.4C43.47 184.74 44.075 184.055 44.565 183.345C45.065 182.625 45.315 181.92 45.315 181.23C45.315 180.58 45.155 180.07 44.835 179.7C44.525 179.32 44.02 179.13 43.32 179.13C42.64 179.13 42.11 179.345 41.73 179.775C41.36 180.195 41.16 180.76 41.13 181.47H39.81C39.85 180.35 40.19 179.485 40.83 178.875C41.47 178.265 42.295 177.96 43.305 177.96C44.335 177.96 45.15 178.245 45.75 178.815C46.36 179.385 46.665 180.17 46.665 181.17C46.665 182 46.415 182.81 45.915 183.6C45.425 184.38 44.865 185.07 44.235 185.67C43.605 186.26 42.8 186.95 41.82 187.74H46.98V188.88H39.765V187.905ZM48.5579 183.465C48.5579 181.745 48.8379 180.405 49.3979 179.445C49.9579 178.475 50.9379 177.99 52.3379 177.99C53.7279 177.99 54.7029 178.475 55.2629 179.445C55.8229 180.405 56.1029 181.745 56.1029 183.465C56.1029 185.215 55.8229 186.575 55.2629 187.545C54.7029 188.515 53.7279 189 52.3379 189C50.9379 189 49.9579 188.515 49.3979 187.545C48.8379 186.575 48.5579 185.215 48.5579 183.465ZM54.7529 183.465C54.7529 182.595 54.6929 181.86 54.5729 181.26C54.4629 180.65 54.2279 180.16 53.8679 179.79C53.5179 179.42 53.0079 179.235 52.3379 179.235C51.6579 179.235 51.1379 179.42 50.7779 179.79C50.4279 180.16 50.1929 180.65 50.0729 181.26C49.9629 181.86 49.9079 182.595 49.9079 183.465C49.9079 184.365 49.9629 185.12 50.0729 185.73C50.1929 186.34 50.4279 186.83 50.7779 187.2C51.1379 187.57 51.6579 187.755 52.3379 187.755C53.0079 187.755 53.5179 187.57 53.8679 187.2C54.2279 186.83 54.4629 186.34 54.5729 185.73C54.6929 185.12 54.7529 184.365 54.7529 183.465Z" fill="black" fill-opacity="0.54"/>
<path d="M39.765 152.905C41.035 151.885 42.03 151.05 42.75 150.4C43.47 149.74 44.075 149.055 44.565 148.345C45.065 147.625 45.315 146.92 45.315 146.23C45.315 145.58 45.155 145.07 44.835 144.7C44.525 144.32 44.02 144.13 43.32 144.13C42.64 144.13 42.11 144.345 41.73 144.775C41.36 145.195 41.16 145.76 41.13 146.47H39.81C39.85 145.35 40.19 144.485 40.83 143.875C41.47 143.265 42.295 142.96 43.305 142.96C44.335 142.96 45.15 143.245 45.75 143.815C46.36 144.385 46.665 145.17 46.665 146.17C46.665 147 46.415 147.81 45.915 148.6C45.425 149.38 44.865 150.07 44.235 150.67C43.605 151.26 42.8 151.95 41.82 152.74H46.98V153.88H39.765V152.905ZM55.4729 144.34H50.2079V147.76C50.4379 147.44 50.7779 147.18 51.2279 146.98C51.6779 146.77 52.1629 146.665 52.6829 146.665C53.5129 146.665 54.1879 146.84 54.7079 147.19C55.2279 147.53 55.5979 147.975 55.8179 148.525C56.0479 149.065 56.1629 149.64 56.1629 150.25C56.1629 150.97 56.0279 151.615 55.7579 152.185C55.4879 152.755 55.0729 153.205 54.5129 153.535C53.9629 153.865 53.2779 154.03 52.4579 154.03C51.4079 154.03 50.5579 153.76 49.9079 153.22C49.2579 152.68 48.8629 151.96 48.7229 151.06H50.0579C50.1879 151.63 50.4629 152.075 50.8829 152.395C51.3029 152.715 51.8329 152.875 52.4729 152.875C53.2629 152.875 53.8579 152.64 54.2579 152.17C54.6579 151.69 54.8579 151.06 54.8579 150.28C54.8579 149.5 54.6579 148.9 54.2579 148.48C53.8579 148.05 53.2679 147.835 52.4879 147.835C51.9579 147.835 51.4929 147.965 51.0929 148.225C50.7029 148.475 50.4179 148.82 50.2379 149.26H48.9479V143.14H55.4729V144.34Z" fill="black" fill-opacity="0.54"/>
<path d="M39.9 110.885C39.97 109.965 40.325 109.245 40.965 108.725C41.605 108.205 42.435 107.945 43.455 107.945C44.135 107.945 44.72 108.07 45.21 108.32C45.71 108.56 46.085 108.89 46.335 109.31C46.595 109.73 46.725 110.205 46.725 110.735C46.725 111.355 46.545 111.89 46.185 112.34C45.835 112.79 45.375 113.08 44.805 113.21V113.285C45.455 113.445 45.97 113.76 46.35 114.23C46.73 114.7 46.92 115.315 46.92 116.075C46.92 116.645 46.79 117.16 46.53 117.62C46.27 118.07 45.88 118.425 45.36 118.685C44.84 118.945 44.215 119.075 43.485 119.075C42.425 119.075 41.555 118.8 40.875 118.25C40.195 117.69 39.815 116.9 39.735 115.88H41.055C41.125 116.48 41.37 116.97 41.79 117.35C42.21 117.73 42.77 117.92 43.47 117.92C44.17 117.92 44.7 117.74 45.06 117.38C45.43 117.01 45.615 116.535 45.615 115.955C45.615 115.205 45.365 114.665 44.865 114.335C44.365 114.005 43.61 113.84 42.6 113.84H42.255V112.7H42.615C43.535 112.69 44.23 112.54 44.7 112.25C45.17 111.95 45.405 111.49 45.405 110.87C45.405 110.34 45.23 109.915 44.88 109.595C44.54 109.275 44.05 109.115 43.41 109.115C42.79 109.115 42.29 109.275 41.91 109.595C41.53 109.915 41.305 110.345 41.235 110.885H39.9ZM48.763 113.465C48.763 111.745 49.043 110.405 49.603 109.445C50.163 108.475 51.143 107.99 52.543 107.99C53.933 107.99 54.908 108.475 55.468 109.445C56.028 110.405 56.308 111.745 56.308 113.465C56.308 115.215 56.028 116.575 55.468 117.545C54.908 118.515 53.933 119 52.543 119C51.143 119 50.163 118.515 49.603 117.545C49.043 116.575 48.763 115.215 48.763 113.465ZM54.958 113.465C54.958 112.595 54.898 111.86 54.778 111.26C54.668 110.65 54.433 110.16 54.073 109.79C53.723 109.42 53.213 109.235 52.543 109.235C51.863 109.235 51.343 109.42 50.983 109.79C50.633 110.16 50.398 110.65 50.278 111.26C50.168 111.86 50.113 112.595 50.113 113.465C50.113 114.365 50.168 115.12 50.278 115.73C50.398 116.34 50.633 116.83 50.983 117.2C51.343 117.57 51.863 117.755 52.543 117.755C53.213 117.755 53.723 117.57 54.073 117.2C54.433 116.83 54.668 116.34 54.778 115.73C54.898 115.12 54.958 114.365 54.958 113.465Z" fill="black" fill-opacity="0.54"/>
<path d="M39.9 75.885C39.97 74.965 40.325 74.245 40.965 73.725C41.605 73.205 42.435 72.945 43.455 72.945C44.135 72.945 44.72 73.07 45.21 73.32C45.71 73.56 46.085 73.89 46.335 74.31C46.595 74.73 46.725 75.205 46.725 75.735C46.725 76.355 46.545 76.89 46.185 77.34C45.835 77.79 45.375 78.08 44.805 78.21V78.285C45.455 78.445 45.97 78.76 46.35 79.23C46.73 79.7 46.92 80.315 46.92 81.075C46.92 81.645 46.79 82.16 46.53 82.62C46.27 83.07 45.88 83.425 45.36 83.685C44.84 83.945 44.215 84.075 43.485 84.075C42.425 84.075 41.555 83.8 40.875 83.25C40.195 82.69 39.815 81.9 39.735 80.88H41.055C41.125 81.48 41.37 81.97 41.79 82.35C42.21 82.73 42.77 82.92 43.47 82.92C44.17 82.92 44.7 82.74 45.06 82.38C45.43 82.01 45.615 81.535 45.615 80.955C45.615 80.205 45.365 79.665 44.865 79.335C44.365 79.005 43.61 78.84 42.6 78.84H42.255V77.7H42.615C43.535 77.69 44.23 77.54 44.7 77.25C45.17 76.95 45.405 76.49 45.405 75.87C45.405 75.34 45.23 74.915 44.88 74.595C44.54 74.275 44.05 74.115 43.41 74.115C42.79 74.115 42.29 74.275 41.91 74.595C41.53 74.915 41.305 75.345 41.235 75.885H39.9ZM55.678 74.34H50.413V77.76C50.643 77.44 50.983 77.18 51.433 76.98C51.883 76.77 52.368 76.665 52.888 76.665C53.718 76.665 54.393 76.84 54.913 77.19C55.433 77.53 55.803 77.975 56.023 78.525C56.253 79.065 56.368 79.64 56.368 80.25C56.368 80.97 56.233 81.615 55.963 82.185C55.693 82.755 55.278 83.205 54.718 83.535C54.168 83.865 53.483 84.03 52.663 84.03C51.613 84.03 50.763 83.76 50.113 83.22C49.463 82.68 49.068 81.96 48.928 81.06H50.263C50.393 81.63 50.668 82.075 51.088 82.395C51.508 82.715 52.038 82.875 52.678 82.875C53.468 82.875 54.063 82.64 54.463 82.17C54.863 81.69 55.063 81.06 55.063 80.28C55.063 79.5 54.863 78.9 54.463 78.48C54.063 78.05 53.473 77.835 52.693 77.835C52.163 77.835 51.698 77.965 51.298 78.225C50.908 78.475 50.623 78.82 50.443 79.26H49.153V73.14H55.678V74.34Z" fill="black" fill-opacity="0.54"/>
<rect x="103" y="77" width="35" height="252" fill="#FF9A9A"/>
<rect x="173" y="108" width="35" height="222" fill="#FFC7C7"/>
<rect x="243" y="215" width="35" height="115" fill="#FF9A9A"/>
<rect x="313" y="183" width="35" height="146" fill="#FFC7C7"/>
<rect x="383" y="250" width="35" height="80" fill="#FF9A9A"/>
<rect x="454" y="127" width="35" height="203" fill="#FFC7C7"/>
<rect x="524" y="95" width="35" height="235" fill="#FF9A9A"/>
<rect x="594" y="137" width="35" height="193" fill="#FFC7C7"/>
<rect x="664" y="108" width="35" height="222" fill="#FF9A9A"/>
<rect x="734" y="77" width="35" height="253" fill="#FFC7C7"/>
<rect x="804" y="155" width="35" height="175" fill="#FF9A9A"/>
<rect x="874" y="137" width="35" height="192" fill="#FFC7C7"/>
<g filter="url(#filter1_d_447_2449)">
<path d="M830 25C830 19.4772 834.477 15 840 15H944C949.523 15 954 19.4772 954 25V26C954 31.5228 949.523 36 944 36H840C834.477 36 830 31.5228 830 26V25Z" fill="white"/>
<path d="M830.5 25C830.5 19.7533 834.753 15.5 840 15.5H944C949.247 15.5 953.5 19.7533 953.5 25V26C953.5 31.2467 949.247 35.5 944 35.5H840C834.753 35.5 830.5 31.2467 830.5 26V25Z" stroke="black" stroke-opacity="0.66"/>
</g>
<path d="M870.503 27.63C871.463 26.83 872.228 26.165 872.798 25.635C873.368 25.095 873.843 24.535 874.223 23.955C874.603 23.375 874.793 22.805 874.793 22.245C874.793 21.735 874.673 21.335 874.433 21.045C874.193 20.755 873.823 20.61 873.323 20.61C872.823 20.61 872.438 20.78 872.168 21.12C871.898 21.45 871.758 21.905 871.748 22.485H869.708C869.748 21.285 870.103 20.375 870.773 19.755C871.453 19.135 872.313 18.825 873.353 18.825C874.493 18.825 875.368 19.13 875.978 19.74C876.588 20.34 876.893 21.135 876.893 22.125C876.893 22.905 876.683 23.65 876.263 24.36C875.843 25.07 875.363 25.69 874.823 26.22C874.283 26.74 873.578 27.37 872.708 28.11H877.133V29.85H869.723V28.29L870.503 27.63ZM878.457 24.39C878.457 22.66 878.767 21.305 879.387 20.325C880.017 19.345 881.057 18.855 882.507 18.855C883.957 18.855 884.992 19.345 885.612 20.325C886.242 21.305 886.557 22.66 886.557 24.39C886.557 26.13 886.242 27.495 885.612 28.485C884.992 29.475 883.957 29.97 882.507 29.97C881.057 29.97 880.017 29.475 879.387 28.485C878.767 27.495 878.457 26.13 878.457 24.39ZM884.487 24.39C884.487 23.65 884.437 23.03 884.337 22.53C884.247 22.02 884.057 21.605 883.767 21.285C883.487 20.965 883.067 20.805 882.507 20.805C881.947 20.805 881.522 20.965 881.232 21.285C880.952 21.605 880.762 22.02 880.662 22.53C880.572 23.03 880.527 23.65 880.527 24.39C880.527 25.15 880.572 25.79 880.662 26.31C880.752 26.82 880.942 27.235 881.232 27.555C881.522 27.865 881.947 28.02 882.507 28.02C883.067 28.02 883.492 27.865 883.782 27.555C884.072 27.235 884.262 26.82 884.352 26.31C884.442 25.79 884.487 25.15 884.487 24.39ZM888.814 27.63C889.774 26.83 890.539 26.165 891.109 25.635C891.679 25.095 892.154 24.535 892.534 23.955C892.914 23.375 893.104 22.805 893.104 22.245C893.104 21.735 892.984 21.335 892.744 21.045C892.504 20.755 892.134 20.61 891.634 20.61C891.134 20.61 890.749 20.78 890.479 21.12C890.209 21.45 890.069 21.905 890.059 22.485H888.019C888.059 21.285 888.414 20.375 889.084 19.755C889.764 19.135 890.624 18.825 891.664 18.825C892.804 18.825 893.679 19.13 894.289 19.74C894.899 20.34 895.204 21.135 895.204 22.125C895.204 22.905 894.994 23.65 894.574 24.36C894.154 25.07 893.674 25.69 893.134 26.22C892.594 26.74 891.889 27.37 891.019 28.11H895.444V29.85H888.034V28.29L888.814 27.63ZM896.797 21.945C896.847 20.945 897.197 20.175 897.847 19.635C898.507 19.085 899.372 18.81 900.442 18.81C901.172 18.81 901.797 18.94 902.317 19.2C902.837 19.45 903.227 19.795 903.487 20.235C903.757 20.665 903.892 21.155 903.892 21.705C903.892 22.335 903.727 22.87 903.397 23.31C903.077 23.74 902.692 24.03 902.242 24.18V24.24C902.822 24.42 903.272 24.74 903.592 25.2C903.922 25.66 904.087 26.25 904.087 26.97C904.087 27.57 903.947 28.105 903.667 28.575C903.397 29.045 902.992 29.415 902.452 29.685C901.922 29.945 901.282 30.075 900.532 30.075C899.402 30.075 898.482 29.79 897.772 29.22C897.062 28.65 896.687 27.81 896.647 26.7H898.687C898.707 27.19 898.872 27.585 899.182 27.885C899.502 28.175 899.937 28.32 900.487 28.32C900.997 28.32 901.387 28.18 901.657 27.9C901.937 27.61 902.077 27.24 902.077 26.79C902.077 26.19 901.887 25.76 901.507 25.5C901.127 25.24 900.537 25.11 899.737 25.11H899.302V23.385H899.737C901.157 23.385 901.867 22.91 901.867 21.96C901.867 21.53 901.737 21.195 901.477 20.955C901.227 20.715 900.862 20.595 900.382 20.595C899.912 20.595 899.547 20.725 899.287 20.985C899.037 21.235 898.892 21.555 898.852 21.945H896.797Z" fill="#545454"/>
<circle cx="932" cy="25" r="1" stroke="#33363F" stroke-width="2" stroke-linecap="round"/>
<circle cx="926" cy="25" r="1" stroke="#33363F" stroke-width="2" stroke-linecap="round"/>
<circle cx="938" cy="25" r="1" stroke="#33363F" stroke-width="2" stroke-linecap="round"/>
<rect x="26" y="13" width="195" height="29" rx="14.5" fill="#FFBBBB"/>
<path d="M90.6294 20.545V31H89.2644V20.545H90.6294ZM94.3208 24.31C94.6008 23.82 95.0108 23.42 95.5508 23.11C96.0908 22.8 96.7058 22.645 97.3958 22.645C98.1358 22.645 98.8008 22.82 99.3908 23.17C99.9808 23.52 100.446 24.015 100.786 24.655C101.126 25.285 101.296 26.02 101.296 26.86C101.296 27.69 101.126 28.43 100.786 29.08C100.446 29.73 99.9758 30.235 99.3758 30.595C98.7858 30.955 98.1258 31.135 97.3958 31.135C96.6858 31.135 96.0608 30.98 95.5208 30.67C94.9908 30.36 94.5908 29.965 94.3208 29.485V31H92.9558V19.9H94.3208V24.31ZM99.9008 26.86C99.9008 26.24 99.7758 25.7 99.5258 25.24C99.2758 24.78 98.9358 24.43 98.5058 24.19C98.0858 23.95 97.6208 23.83 97.1108 23.83C96.6108 23.83 96.1458 23.955 95.7158 24.205C95.2958 24.445 94.9558 24.8 94.6958 25.27C94.4458 25.73 94.3208 26.265 94.3208 26.875C94.3208 27.495 94.4458 28.04 94.6958 28.51C94.9558 28.97 95.2958 29.325 95.7158 29.575C96.1458 29.815 96.6108 29.935 97.1108 29.935C97.6208 29.935 98.0858 29.815 98.5058 29.575C98.9358 29.325 99.2758 28.97 99.5258 28.51C99.7758 28.04 99.9008 27.49 99.9008 26.86ZM110.383 22.78V31H109.018V29.785C108.758 30.205 108.393 30.535 107.923 30.775C107.463 31.005 106.953 31.12 106.393 31.12C105.753 31.12 105.178 30.99 104.668 30.73C104.158 30.46 103.753 30.06 103.453 29.53C103.163 29 103.018 28.355 103.018 27.595V22.78H104.368V27.415C104.368 28.225 104.573 28.85 104.983 29.29C105.393 29.72 105.953 29.935 106.663 29.935C107.393 29.935 107.968 29.71 108.388 29.26C108.808 28.81 109.018 28.155 109.018 27.295V22.78H110.383ZM124.741 20.545V31H123.376V26.26H118.051V31H116.686V20.545H118.051V25.135H123.376V20.545H124.741ZM126.562 26.86C126.562 26.02 126.732 25.285 127.072 24.655C127.412 24.015 127.877 23.52 128.467 23.17C129.067 22.82 129.732 22.645 130.462 22.645C131.182 22.645 131.807 22.8 132.337 23.11C132.867 23.42 133.262 23.81 133.522 24.28V22.78H134.902V31H133.522V29.47C133.252 29.95 132.847 30.35 132.307 30.67C131.777 30.98 131.157 31.135 130.447 31.135C129.717 31.135 129.057 30.955 128.467 30.595C127.877 30.235 127.412 29.73 127.072 29.08C126.732 28.43 126.562 27.69 126.562 26.86ZM133.522 26.875C133.522 26.255 133.397 25.715 133.147 25.255C132.897 24.795 132.557 24.445 132.127 24.205C131.707 23.955 131.242 23.83 130.732 23.83C130.222 23.83 129.757 23.95 129.337 24.19C128.917 24.43 128.582 24.78 128.332 25.24C128.082 25.7 127.957 26.24 127.957 26.86C127.957 27.49 128.082 28.04 128.332 28.51C128.582 28.97 128.917 29.325 129.337 29.575C129.757 29.815 130.222 29.935 130.732 29.935C131.242 29.935 131.707 29.815 132.127 29.575C132.557 29.325 132.897 28.97 133.147 28.51C133.397 28.04 133.522 27.495 133.522 26.875ZM147.094 22.63C147.734 22.63 148.304 22.765 148.804 23.035C149.304 23.295 149.699 23.69 149.989 24.22C150.279 24.75 150.424 25.395 150.424 26.155V31H149.074V26.35C149.074 25.53 148.869 24.905 148.459 24.475C148.059 24.035 147.514 23.815 146.824 23.815C146.114 23.815 145.549 24.045 145.129 24.505C144.709 24.955 144.499 25.61 144.499 26.47V31H143.149V26.35C143.149 25.53 142.944 24.905 142.534 24.475C142.134 24.035 141.589 23.815 140.899 23.815C140.189 23.815 139.624 24.045 139.204 24.505C138.784 24.955 138.574 25.61 138.574 26.47V31H137.209V22.78H138.574V23.965C138.844 23.535 139.204 23.205 139.654 22.975C140.114 22.745 140.619 22.63 141.169 22.63C141.859 22.63 142.469 22.785 142.999 23.095C143.529 23.405 143.924 23.86 144.184 24.46C144.414 23.88 144.794 23.43 145.324 23.11C145.854 22.79 146.444 22.63 147.094 22.63ZM153.368 21.445C153.108 21.445 152.888 21.355 152.708 21.175C152.528 20.995 152.438 20.775 152.438 20.515C152.438 20.255 152.528 20.035 152.708 19.855C152.888 19.675 153.108 19.585 153.368 19.585C153.618 19.585 153.828 19.675 153.998 19.855C154.178 20.035 154.268 20.255 154.268 20.515C154.268 20.775 154.178 20.995 153.998 21.175C153.828 21.355 153.618 21.445 153.368 21.445ZM154.028 22.78V31H152.663V22.78H154.028ZM157.719 19.9V31H156.354V19.9H157.719Z" fill="black"/>
<defs>
<filter id="filter0_d_447_2449" x="0" y="0" width="970" height="396" filterUnits="userSpaceOnUse" color-interpolation-filters="sRGB">
<feFlood flood-opacity="0" result="BackgroundImageFix"/>
<feColorMatrix in="SourceAlpha" type="matrix" values="0 0 0 0 0 0 0 0 0 0 0 0 0 0 0 0 0 0 127 0" result="hardAlpha"/>
<feOffset dy="4"/>
<feGaussianBlur stdDeviation="2"/>
<feComposite in2="hardAlpha" operator="out"/>
<feColorMatrix type="matrix" values="0 0 0 0 0 0 0 0 0 0 0 0 0 0 0 0 0 0 0.25 0"/>
<feBlend mode="normal" in2="BackgroundImageFix" result="effect1_dropShadow_447_2449"/>
<feBlend mode="normal" in="SourceGraphic" in2="effect1_dropShadow_447_2449" result="shape"/>
</filter>
<filter id="filter1_d_447_2449" x="826" y="15" width="132" height="29" filterUnits="userSpaceOnUse" color-interpolation-filters="sRGB">
<feFlood flood-opacity="0" result="BackgroundImageFix"/>
<feColorMatrix in="SourceAlpha" type="matrix" values="0 0 0 0 0 0 0 0 0 0 0 0 0 0 0 0 0 0 127 0" result="hardAlpha"/>
<feOffset dy="4"/>
<feGaussianBlur stdDeviation="2"/>
<feComposite in2="hardAlpha" operator="out"/>
<feColorMatrix type="matrix" values="0 0 0 0 0 0 0 0 0 0 0 0 0 0 0 0 0 0 0.25 0"/>
<feBlend mode="normal" in2="BackgroundImageFix" result="effect1_dropShadow_447_2449"/>
<feBlend mode="normal" in="SourceGraphic" in2="effect1_dropShadow_447_2449" result="shape"/>
</filter>
</defs>
</svg>
