<svg width="306" height="247" viewBox="0 0 306 247" fill="none" xmlns="http://www.w3.org/2000/svg">
<g filter="url(#filter0_d_381_1891)">
<rect x="4" y="0.925293" width="297.234" height="237.266" rx="5" fill="#FFF4F4"/>
</g>
<path d="M15.4067 196.417C15.4067 195.614 15.5373 194.989 15.7987 194.541C16.06 194.088 16.5173 193.862 17.1707 193.862C17.8193 193.862 18.2743 194.088 18.5357 194.541C18.797 194.989 18.9277 195.614 18.9277 196.417C18.9277 197.234 18.797 197.868 18.5357 198.321C18.2743 198.774 17.8193 199 17.1707 199C16.5173 199 16.06 198.774 15.7987 198.321C15.5373 197.868 15.4067 197.234 15.4067 196.417ZM18.2977 196.417C18.2977 196.011 18.2697 195.668 18.2137 195.388C18.1623 195.103 18.0527 194.875 17.8847 194.702C17.7213 194.529 17.4833 194.443 17.1707 194.443C16.8533 194.443 16.6107 194.529 16.4427 194.702C16.2793 194.875 16.1697 195.103 16.1137 195.388C16.0623 195.668 16.0367 196.011 16.0367 196.417C16.0367 196.837 16.0623 197.189 16.1137 197.474C16.1697 197.759 16.2793 197.987 16.4427 198.16C16.6107 198.333 16.8533 198.419 17.1707 198.419C17.4833 198.419 17.7213 198.333 17.8847 198.16C18.0527 197.987 18.1623 197.759 18.2137 197.474C18.2697 197.189 18.2977 196.837 18.2977 196.417Z" fill="black" fill-opacity="0.54"/>
<path d="M36.5087 208.121V211.726C36.5087 212.127 36.385 212.449 36.1377 212.692C35.8904 212.93 35.5637 213.049 35.1577 213.049C34.747 213.049 34.418 212.928 34.1707 212.685C33.9234 212.438 33.7997 212.102 33.7997 211.677H34.4367C34.4414 211.915 34.502 212.109 34.6187 212.258C34.74 212.407 34.9197 212.482 35.1577 212.482C35.3957 212.482 35.573 212.412 35.6897 212.272C35.8064 212.127 35.8647 211.945 35.8647 211.726V208.121H36.5087ZM37.5256 211.068C37.5256 210.676 37.6049 210.333 37.7636 210.039C37.9223 209.74 38.1393 209.509 38.4146 209.346C38.6946 209.183 39.0049 209.101 39.3456 209.101C39.6816 209.101 39.9733 209.173 40.2206 209.318C40.4679 209.463 40.6523 209.645 40.7736 209.864V209.164H41.4176V213H40.7736V212.286C40.6476 212.51 40.4586 212.697 40.2066 212.846C39.9593 212.991 39.6699 213.063 39.3386 213.063C38.9979 213.063 38.6899 212.979 38.4146 212.811C38.1393 212.643 37.9223 212.407 37.7636 212.104C37.6049 211.801 37.5256 211.455 37.5256 211.068ZM40.7736 211.075C40.7736 210.786 40.7153 210.534 40.5986 210.319C40.4819 210.104 40.3233 209.941 40.1226 209.829C39.9266 209.712 39.7096 209.654 39.4716 209.654C39.2336 209.654 39.0166 209.71 38.8206 209.822C38.6246 209.934 38.4683 210.097 38.3516 210.312C38.2349 210.527 38.1766 210.779 38.1766 211.068C38.1766 211.362 38.2349 211.619 38.3516 211.838C38.4683 212.053 38.6246 212.218 38.8206 212.335C39.0166 212.447 39.2336 212.503 39.4716 212.503C39.7096 212.503 39.9266 212.447 40.1226 212.335C40.3233 212.218 40.4819 212.053 40.5986 211.838C40.7153 211.619 40.7736 211.364 40.7736 211.075ZM44.3631 209.094C44.8297 209.094 45.2077 209.236 45.4971 209.521C45.7864 209.801 45.9311 210.207 45.9311 210.739V213H45.3011V210.83C45.3011 210.447 45.2054 210.156 45.0141 209.955C44.8227 209.75 44.5614 209.647 44.2301 209.647C43.8941 209.647 43.6257 209.752 43.4251 209.962C43.2291 210.172 43.1311 210.478 43.1311 210.879V213H42.4941V209.164H43.1311V209.71C43.2571 209.514 43.4274 209.362 43.6421 209.255C43.8614 209.148 44.1017 209.094 44.3631 209.094Z" fill="black" fill-opacity="0.54"/>
<path d="M57.9703 208.121V208.639H55.8493V210.284H57.5713V210.802H55.8493V213H55.2123V208.121H57.9703ZM62.2397 210.935C62.2397 211.056 62.2327 211.185 62.2187 211.32H59.1527C59.176 211.698 59.3044 211.994 59.5377 212.209C59.7757 212.419 60.0627 212.524 60.3987 212.524C60.674 212.524 60.9027 212.461 61.0847 212.335C61.2714 212.204 61.402 212.032 61.4767 211.817H62.1627C62.06 212.186 61.8547 212.487 61.5467 212.72C61.2387 212.949 60.856 213.063 60.3987 213.063C60.0347 213.063 59.708 212.981 59.4187 212.818C59.134 212.655 58.91 212.424 58.7467 212.125C58.5834 211.822 58.5017 211.472 58.5017 211.075C58.5017 210.678 58.581 210.331 58.7397 210.032C58.8984 209.733 59.12 209.505 59.4047 209.346C59.694 209.183 60.0254 209.101 60.3987 209.101C60.7627 209.101 61.0847 209.18 61.3647 209.339C61.6447 209.498 61.8594 209.717 62.0087 209.997C62.1627 210.272 62.2397 210.585 62.2397 210.935ZM61.5817 210.802C61.5817 210.559 61.528 210.352 61.4207 210.179C61.3134 210.002 61.1664 209.869 60.9797 209.78C60.7977 209.687 60.5947 209.64 60.3707 209.64C60.0487 209.64 59.7734 209.743 59.5447 209.948C59.3207 210.153 59.1924 210.438 59.1597 210.802H61.5817ZM63.7175 209.878C63.8482 209.649 64.0395 209.463 64.2915 209.318C64.5435 209.173 64.8305 209.101 65.1525 209.101C65.4978 209.101 65.8082 209.183 66.0835 209.346C66.3588 209.509 66.5758 209.74 66.7345 210.039C66.8932 210.333 66.9725 210.676 66.9725 211.068C66.9725 211.455 66.8932 211.801 66.7345 212.104C66.5758 212.407 66.3565 212.643 66.0765 212.811C65.8012 212.979 65.4932 213.063 65.1525 213.063C64.8212 213.063 64.5295 212.991 64.2775 212.846C64.0302 212.701 63.8435 212.517 63.7175 212.293V213H63.0805V207.82H63.7175V209.878ZM66.3215 211.068C66.3215 210.779 66.2632 210.527 66.1465 210.312C66.0298 210.097 65.8712 209.934 65.6705 209.822C65.4745 209.71 65.2575 209.654 65.0195 209.654C64.7862 209.654 64.5692 209.712 64.3685 209.829C64.1725 209.941 64.0138 210.107 63.8925 210.326C63.7758 210.541 63.7175 210.79 63.7175 211.075C63.7175 211.364 63.7758 211.619 63.8925 211.838C64.0138 212.053 64.1725 212.218 64.3685 212.335C64.5692 212.447 64.7862 212.503 65.0195 212.503C65.2575 212.503 65.4745 212.447 65.6705 212.335C65.8712 212.218 66.0298 212.053 66.1465 211.838C66.2632 211.619 66.3215 211.362 66.3215 211.068Z" fill="black" fill-opacity="0.54"/>
<path d="M82.2751 208.156V213H81.6381V209.388L80.0281 213H79.5801L77.9631 209.381V213H77.3261V208.156H78.0121L79.8041 212.16L81.5961 208.156H82.2751ZM83.1174 211.068C83.1174 210.676 83.1967 210.333 83.3554 210.039C83.5141 209.74 83.7311 209.509 84.0064 209.346C84.2864 209.183 84.5967 209.101 84.9374 209.101C85.2734 209.101 85.5651 209.173 85.8124 209.318C86.0597 209.463 86.2441 209.645 86.3654 209.864V209.164H87.0094V213H86.3654V212.286C86.2394 212.51 86.0504 212.697 85.7984 212.846C85.5511 212.991 85.2617 213.063 84.9304 213.063C84.5897 213.063 84.2817 212.979 84.0064 212.811C83.7311 212.643 83.5141 212.407 83.3554 212.104C83.1967 211.801 83.1174 211.455 83.1174 211.068ZM86.3654 211.075C86.3654 210.786 86.3071 210.534 86.1904 210.319C86.0737 210.104 85.9151 209.941 85.7144 209.829C85.5184 209.712 85.3014 209.654 85.0634 209.654C84.8254 209.654 84.6084 209.71 84.4124 209.822C84.2164 209.934 84.0601 210.097 83.9434 210.312C83.8267 210.527 83.7684 210.779 83.7684 211.068C83.7684 211.362 83.8267 211.619 83.9434 211.838C84.0601 212.053 84.2164 212.218 84.4124 212.335C84.6084 212.447 84.8254 212.503 85.0634 212.503C85.3014 212.503 85.5184 212.447 85.7144 212.335C85.9151 212.218 86.0737 212.053 86.1904 211.838C86.3071 211.619 86.3654 211.364 86.3654 211.075ZM88.7229 209.787C88.8349 209.568 88.9935 209.397 89.1989 209.276C89.4089 209.155 89.6632 209.094 89.9619 209.094V209.752H89.7939C89.0799 209.752 88.7229 210.139 88.7229 210.914V213H88.0859V209.164H88.7229V209.787Z" fill="black" fill-opacity="0.54"/>
<path d="M101.866 211.915H99.7384L99.3464 213H98.6744L100.438 208.149H101.173L102.93 213H102.258L101.866 211.915ZM101.684 211.397L100.802 208.933L99.9204 211.397H101.684ZM104.336 209.871C104.462 209.652 104.649 209.47 104.896 209.325C105.148 209.176 105.44 209.101 105.771 209.101C106.112 209.101 106.42 209.183 106.695 209.346C106.975 209.509 107.194 209.74 107.353 210.039C107.512 210.333 107.591 210.676 107.591 211.068C107.591 211.455 107.512 211.801 107.353 212.104C107.194 212.407 106.975 212.643 106.695 212.811C106.42 212.979 106.112 213.063 105.771 213.063C105.444 213.063 105.155 212.991 104.903 212.846C104.656 212.697 104.467 212.512 104.336 212.293V214.82H103.699V209.164H104.336V209.871ZM106.94 211.068C106.94 210.779 106.882 210.527 106.765 210.312C106.648 210.097 106.49 209.934 106.289 209.822C106.093 209.71 105.876 209.654 105.638 209.654C105.405 209.654 105.188 209.712 104.987 209.829C104.791 209.941 104.632 210.107 104.511 210.326C104.394 210.541 104.336 210.79 104.336 211.075C104.336 211.364 104.394 211.619 104.511 211.838C104.632 212.053 104.791 212.218 104.987 212.335C105.188 212.447 105.405 212.503 105.638 212.503C105.876 212.503 106.093 212.447 106.289 212.335C106.49 212.218 106.648 212.053 106.765 211.838C106.882 211.619 106.94 211.362 106.94 211.068ZM109.067 209.787C109.179 209.568 109.337 209.397 109.543 209.276C109.753 209.155 110.007 209.094 110.306 209.094V209.752H110.138C109.424 209.752 109.067 210.139 109.067 210.914V213H108.43V209.164H109.067V209.787Z" fill="black" fill-opacity="0.54"/>
<path d="M125.914 208.156V213H125.277V209.388L123.667 213H123.219L121.602 209.381V213H120.965V208.156H121.651L123.443 212.16L125.235 208.156H125.914ZM130.495 210.935C130.495 211.056 130.488 211.185 130.474 211.32H127.408C127.431 211.698 127.559 211.994 127.793 212.209C128.031 212.419 128.318 212.524 128.654 212.524C128.929 212.524 129.158 212.461 129.34 212.335C129.526 212.204 129.657 212.032 129.732 211.817H130.418C130.315 212.186 130.11 212.487 129.802 212.72C129.494 212.949 129.111 213.063 128.654 213.063C128.29 213.063 127.963 212.981 127.674 212.818C127.389 212.655 127.165 212.424 127.002 212.125C126.838 211.822 126.757 211.472 126.757 211.075C126.757 210.678 126.836 210.331 126.995 210.032C127.153 209.733 127.375 209.505 127.66 209.346C127.949 209.183 128.28 209.101 128.654 209.101C129.018 209.101 129.34 209.18 129.62 209.339C129.9 209.498 130.114 209.717 130.264 209.997C130.418 210.272 130.495 210.585 130.495 210.935ZM129.837 210.802C129.837 210.559 129.783 210.352 129.676 210.179C129.568 210.002 129.421 209.869 129.235 209.78C129.053 209.687 128.85 209.64 128.626 209.64C128.304 209.64 128.028 209.743 127.8 209.948C127.576 210.153 127.447 210.438 127.415 210.802H129.837ZM131.664 208.541C131.543 208.541 131.44 208.499 131.356 208.415C131.272 208.331 131.23 208.228 131.23 208.107C131.23 207.986 131.272 207.883 131.356 207.799C131.44 207.715 131.543 207.673 131.664 207.673C131.781 207.673 131.879 207.715 131.958 207.799C132.042 207.883 132.084 207.986 132.084 208.107C132.084 208.228 132.042 208.331 131.958 208.415C131.879 208.499 131.781 208.541 131.664 208.541ZM131.972 209.164V213H131.335V209.164H131.972Z" fill="black" fill-opacity="0.54"/>
<path d="M144.135 208.121V211.726C144.135 212.127 144.011 212.449 143.764 212.692C143.517 212.93 143.19 213.049 142.784 213.049C142.373 213.049 142.044 212.928 141.797 212.685C141.55 212.438 141.426 212.102 141.426 211.677H142.063C142.068 211.915 142.128 212.109 142.245 212.258C142.366 212.407 142.546 212.482 142.784 212.482C143.022 212.482 143.199 212.412 143.316 212.272C143.433 212.127 143.491 211.945 143.491 211.726V208.121H144.135ZM148.792 209.164V213H148.155V212.433C148.034 212.629 147.863 212.783 147.644 212.895C147.429 213.002 147.191 213.056 146.93 213.056C146.631 213.056 146.363 212.995 146.125 212.874C145.887 212.748 145.698 212.561 145.558 212.314C145.423 212.067 145.355 211.766 145.355 211.411V209.164H145.985V211.327C145.985 211.705 146.081 211.997 146.272 212.202C146.463 212.403 146.725 212.503 147.056 212.503C147.397 212.503 147.665 212.398 147.861 212.188C148.057 211.978 148.155 211.672 148.155 211.271V209.164H148.792ZM151.737 209.094C152.203 209.094 152.581 209.236 152.871 209.521C153.16 209.801 153.305 210.207 153.305 210.739V213H152.675V210.83C152.675 210.447 152.579 210.156 152.388 209.955C152.196 209.75 151.935 209.647 151.604 209.647C151.268 209.647 150.999 209.752 150.799 209.962C150.603 210.172 150.505 210.478 150.505 210.879V213H149.868V209.164H150.505V209.71C150.631 209.514 150.801 209.362 151.016 209.255C151.235 209.148 151.475 209.094 151.737 209.094Z" fill="black" fill-opacity="0.54"/>
<path d="M168.013 208.121V211.726C168.013 212.127 167.889 212.449 167.642 212.692C167.394 212.93 167.068 213.049 166.662 213.049C166.251 213.049 165.922 212.928 165.675 212.685C165.427 212.438 165.304 212.102 165.304 211.677H165.941C165.945 211.915 166.006 212.109 166.123 212.258C166.244 212.407 166.424 212.482 166.662 212.482C166.9 212.482 167.077 212.412 167.194 212.272C167.31 212.127 167.369 211.945 167.369 211.726V208.121H168.013ZM172.67 209.164V213H172.033V212.433C171.911 212.629 171.741 212.783 171.522 212.895C171.307 213.002 171.069 213.056 170.808 213.056C170.509 213.056 170.241 212.995 170.003 212.874C169.765 212.748 169.576 212.561 169.436 212.314C169.3 212.067 169.233 211.766 169.233 211.411V209.164H169.863V211.327C169.863 211.705 169.958 211.997 170.15 212.202C170.341 212.403 170.602 212.503 170.934 212.503C171.274 212.503 171.543 212.398 171.739 212.188C171.935 211.978 172.033 211.672 172.033 211.271V209.164H172.67ZM174.382 207.82V213H173.745V207.82H174.382Z" fill="black" fill-opacity="0.54"/>
<path d="M187.843 211.915H185.715L185.323 213H184.651L186.415 208.149H187.15L188.907 213H188.235L187.843 211.915ZM187.661 211.397L186.779 208.933L185.897 211.397H187.661ZM191.258 209.101C191.59 209.101 191.879 209.173 192.126 209.318C192.378 209.463 192.565 209.645 192.686 209.864V209.164H193.33V213.084C193.33 213.434 193.256 213.744 193.106 214.015C192.957 214.29 192.742 214.505 192.462 214.659C192.187 214.813 191.865 214.89 191.496 214.89C190.992 214.89 190.572 214.771 190.236 214.533C189.9 214.295 189.702 213.971 189.641 213.56H190.271C190.341 213.793 190.486 213.98 190.705 214.12C190.925 214.265 191.188 214.337 191.496 214.337C191.846 214.337 192.131 214.227 192.35 214.008C192.574 213.789 192.686 213.481 192.686 213.084V212.279C192.56 212.503 192.374 212.69 192.126 212.839C191.879 212.988 191.59 213.063 191.258 213.063C190.918 213.063 190.607 212.979 190.327 212.811C190.052 212.643 189.835 212.407 189.676 212.104C189.518 211.801 189.438 211.455 189.438 211.068C189.438 210.676 189.518 210.333 189.676 210.039C189.835 209.74 190.052 209.509 190.327 209.346C190.607 209.183 190.918 209.101 191.258 209.101ZM192.686 211.075C192.686 210.786 192.628 210.534 192.511 210.319C192.395 210.104 192.236 209.941 192.035 209.829C191.839 209.712 191.622 209.654 191.384 209.654C191.146 209.654 190.929 209.71 190.733 209.822C190.537 209.934 190.381 210.097 190.264 210.312C190.148 210.527 190.089 210.779 190.089 211.068C190.089 211.362 190.148 211.619 190.264 211.838C190.381 212.053 190.537 212.218 190.733 212.335C190.929 212.447 191.146 212.503 191.384 212.503C191.622 212.503 191.839 212.447 192.035 212.335C192.236 212.218 192.395 212.053 192.511 211.838C192.628 211.619 192.686 211.364 192.686 211.075ZM195.765 213.063C195.471 213.063 195.207 213.014 194.974 212.916C194.74 212.813 194.556 212.673 194.421 212.496C194.285 212.314 194.211 212.106 194.197 211.873H194.855C194.873 212.064 194.962 212.221 195.121 212.342C195.284 212.463 195.496 212.524 195.758 212.524C196 212.524 196.192 212.47 196.332 212.363C196.472 212.256 196.542 212.12 196.542 211.957C196.542 211.789 196.467 211.665 196.318 211.586C196.168 211.502 195.937 211.42 195.625 211.341C195.34 211.266 195.107 211.192 194.925 211.117C194.747 211.038 194.593 210.923 194.463 210.774C194.337 210.62 194.274 210.419 194.274 210.172C194.274 209.976 194.332 209.796 194.449 209.633C194.565 209.47 194.731 209.341 194.946 209.248C195.16 209.15 195.405 209.101 195.681 209.101C196.105 209.101 196.448 209.208 196.71 209.423C196.971 209.638 197.111 209.932 197.13 210.305H196.493C196.479 210.104 196.397 209.943 196.248 209.822C196.103 209.701 195.907 209.64 195.66 209.64C195.431 209.64 195.249 209.689 195.114 209.787C194.978 209.885 194.911 210.013 194.911 210.172C194.911 210.298 194.95 210.403 195.03 210.487C195.114 210.566 195.216 210.632 195.338 210.683C195.464 210.73 195.636 210.783 195.856 210.844C196.131 210.919 196.355 210.993 196.528 211.068C196.7 211.138 196.847 211.245 196.969 211.39C197.095 211.535 197.16 211.724 197.165 211.957C197.165 212.167 197.106 212.356 196.99 212.524C196.873 212.692 196.707 212.825 196.493 212.923C196.283 213.016 196.04 213.063 195.765 213.063Z" fill="black" fill-opacity="0.54"/>
<path d="M18.6337 174.492H16.1767V176.088C16.284 175.939 16.4427 175.817 16.6527 175.724C16.8627 175.626 17.089 175.577 17.3317 175.577C17.719 175.577 18.034 175.659 18.2767 175.822C18.5193 175.981 18.692 176.188 18.7947 176.445C18.902 176.697 18.9557 176.965 18.9557 177.25C18.9557 177.586 18.8927 177.887 18.7667 178.153C18.6407 178.419 18.447 178.629 18.1857 178.783C17.929 178.937 17.6093 179.014 17.2267 179.014C16.7367 179.014 16.34 178.888 16.0367 178.636C15.7333 178.384 15.549 178.048 15.4837 177.628H16.1067C16.1673 177.894 16.2957 178.102 16.4917 178.251C16.6877 178.4 16.935 178.475 17.2337 178.475C17.6023 178.475 17.88 178.365 18.0667 178.146C18.2533 177.922 18.3467 177.628 18.3467 177.264C18.3467 176.9 18.2533 176.62 18.0667 176.424C17.88 176.223 17.6047 176.123 17.2407 176.123C16.9933 176.123 16.7763 176.184 16.5897 176.305C16.4077 176.422 16.2747 176.583 16.1907 176.788H15.5887V173.932H18.6337V174.492Z" fill="black" fill-opacity="0.54"/>
<path d="M15.2387 152.52V151.939H16.5547V157H15.9107V152.52H15.2387ZM17.6488 154.417C17.6488 153.614 17.7795 152.989 18.0408 152.541C18.3022 152.088 18.7595 151.862 19.4128 151.862C20.0615 151.862 20.5165 152.088 20.7778 152.541C21.0392 152.989 21.1698 153.614 21.1698 154.417C21.1698 155.234 21.0392 155.868 20.7778 156.321C20.5165 156.774 20.0615 157 19.4128 157C18.7595 157 18.3022 156.774 18.0408 156.321C17.7795 155.868 17.6488 155.234 17.6488 154.417ZM20.5398 154.417C20.5398 154.011 20.5118 153.668 20.4558 153.388C20.4045 153.103 20.2948 152.875 20.1268 152.702C19.9635 152.529 19.7255 152.443 19.4128 152.443C19.0955 152.443 18.8528 152.529 18.6848 152.702C18.5215 152.875 18.4118 153.103 18.3558 153.388C18.3045 153.668 18.2788 154.011 18.2788 154.417C18.2788 154.837 18.3045 155.189 18.3558 155.474C18.4118 155.759 18.5215 155.987 18.6848 156.16C18.8528 156.333 19.0955 156.419 19.4128 156.419C19.7255 156.419 19.9635 156.333 20.1268 156.16C20.2948 155.987 20.4045 155.759 20.4558 155.474C20.5118 155.189 20.5398 154.837 20.5398 154.417Z" fill="black" fill-opacity="0.54"/>
<path d="M15.2387 131.52V130.939H16.5547V136H15.9107V131.52H15.2387ZM20.8758 131.492H18.4188V133.088C18.5262 132.939 18.6848 132.817 18.8948 132.724C19.1048 132.626 19.3312 132.577 19.5738 132.577C19.9612 132.577 20.2762 132.659 20.5188 132.822C20.7615 132.981 20.9342 133.188 21.0368 133.445C21.1442 133.697 21.1978 133.965 21.1978 134.25C21.1978 134.586 21.1348 134.887 21.0088 135.153C20.8828 135.419 20.6892 135.629 20.4278 135.783C20.1712 135.937 19.8515 136.014 19.4688 136.014C18.9788 136.014 18.5822 135.888 18.2788 135.636C17.9755 135.384 17.7912 135.048 17.7258 134.628H18.3488C18.4095 134.894 18.5378 135.102 18.7338 135.251C18.9298 135.4 19.1772 135.475 19.4758 135.475C19.8445 135.475 20.1222 135.365 20.3088 135.146C20.4955 134.922 20.5888 134.628 20.5888 134.264C20.5888 133.9 20.4955 133.62 20.3088 133.424C20.1222 133.223 19.8468 133.123 19.4828 133.123C19.2355 133.123 19.0185 133.184 18.8318 133.305C18.6498 133.422 18.5168 133.583 18.4328 133.788H17.8308V130.932H20.8758V131.492Z" fill="black" fill-opacity="0.54"/>
<path d="M15.3297 113.489C15.9223 113.013 16.3867 112.623 16.7227 112.32C17.0587 112.012 17.341 111.692 17.5697 111.361C17.803 111.025 17.9197 110.696 17.9197 110.374C17.9197 110.071 17.845 109.833 17.6957 109.66C17.551 109.483 17.3153 109.394 16.9887 109.394C16.6713 109.394 16.424 109.494 16.2467 109.695C16.074 109.891 15.9807 110.155 15.9667 110.486H15.3507C15.3693 109.963 15.528 109.56 15.8267 109.275C16.1253 108.99 16.5103 108.848 16.9817 108.848C17.4623 108.848 17.8427 108.981 18.1227 109.247C18.4073 109.513 18.5497 109.879 18.5497 110.346C18.5497 110.733 18.433 111.111 18.1997 111.48C17.971 111.844 17.7097 112.166 17.4157 112.446C17.1217 112.721 16.746 113.043 16.2887 113.412H18.6967V113.944H15.3297V113.489ZM19.433 111.417C19.433 110.614 19.5637 109.989 19.825 109.541C20.0864 109.088 20.5437 108.862 21.197 108.862C21.8457 108.862 22.3007 109.088 22.562 109.541C22.8234 109.989 22.954 110.614 22.954 111.417C22.954 112.234 22.8234 112.868 22.562 113.321C22.3007 113.774 21.8457 114 21.197 114C20.5437 114 20.0864 113.774 19.825 113.321C19.5637 112.868 19.433 112.234 19.433 111.417ZM22.324 111.417C22.324 111.011 22.296 110.668 22.24 110.388C22.1887 110.103 22.079 109.875 21.911 109.702C21.7477 109.529 21.5097 109.443 21.197 109.443C20.8797 109.443 20.637 109.529 20.469 109.702C20.3057 109.875 20.196 110.103 20.14 110.388C20.0887 110.668 20.063 111.011 20.063 111.417C20.063 111.837 20.0887 112.189 20.14 112.474C20.196 112.759 20.3057 112.987 20.469 113.16C20.637 113.333 20.8797 113.419 21.197 113.419C21.5097 113.419 21.7477 113.333 21.911 113.16C22.079 112.987 22.1887 112.759 22.24 112.474C22.296 112.189 22.324 111.837 22.324 111.417Z" fill="black" fill-opacity="0.54"/>
<path d="M15.3297 92.489C15.9223 92.013 16.3867 91.6233 16.7227 91.32C17.0587 91.012 17.341 90.6923 17.5697 90.361C17.803 90.025 17.9197 89.696 17.9197 89.374C17.9197 89.0707 17.845 88.8327 17.6957 88.66C17.551 88.4827 17.3153 88.394 16.9887 88.394C16.6713 88.394 16.424 88.4943 16.2467 88.695C16.074 88.891 15.9807 89.1547 15.9667 89.486H15.3507C15.3693 88.9633 15.528 88.5597 15.8267 88.275C16.1253 87.9903 16.5103 87.848 16.9817 87.848C17.4623 87.848 17.8427 87.981 18.1227 88.247C18.4073 88.513 18.5497 88.8793 18.5497 89.346C18.5497 89.7333 18.433 90.1113 18.1997 90.48C17.971 90.844 17.7097 91.166 17.4157 91.446C17.1217 91.7213 16.746 92.0433 16.2887 92.412H18.6967V92.944H15.3297V92.489ZM22.66 88.492H20.203V90.088C20.3104 89.9387 20.469 89.8173 20.679 89.724C20.889 89.626 21.1154 89.577 21.358 89.577C21.7454 89.577 22.0604 89.6587 22.303 89.822C22.5457 89.9807 22.7184 90.1883 22.821 90.445C22.9284 90.697 22.982 90.9653 22.982 91.25C22.982 91.586 22.919 91.887 22.793 92.153C22.667 92.419 22.4734 92.629 22.212 92.783C21.9554 92.937 21.6357 93.014 21.253 93.014C20.763 93.014 20.3664 92.888 20.063 92.636C19.7597 92.384 19.5754 92.048 19.51 91.628H20.133C20.1937 91.894 20.322 92.1017 20.518 92.251C20.714 92.4003 20.9614 92.475 21.26 92.475C21.6287 92.475 21.9064 92.3653 22.093 92.146C22.2797 91.922 22.373 91.628 22.373 91.264C22.373 90.9 22.2797 90.62 22.093 90.424C21.9064 90.2233 21.631 90.123 21.267 90.123C21.0197 90.123 20.8027 90.1837 20.616 90.305C20.434 90.4217 20.301 90.5827 20.217 90.788H19.615V87.932H22.66V88.492Z" fill="black" fill-opacity="0.54"/>
<path d="M15.3927 68.213C15.4253 67.7837 15.591 67.4477 15.8897 67.205C16.1883 66.9623 16.5757 66.841 17.0517 66.841C17.369 66.841 17.642 66.8993 17.8707 67.016C18.104 67.128 18.279 67.282 18.3957 67.478C18.517 67.674 18.5777 67.8957 18.5777 68.143C18.5777 68.4323 18.4937 68.682 18.3257 68.892C18.1623 69.102 17.9477 69.2373 17.6817 69.298V69.333C17.985 69.4077 18.2253 69.5547 18.4027 69.774C18.58 69.9933 18.6687 70.2803 18.6687 70.635C18.6687 70.901 18.608 71.1413 18.4867 71.356C18.3653 71.566 18.1833 71.7317 17.9407 71.853C17.698 71.9743 17.4063 72.035 17.0657 72.035C16.571 72.035 16.165 71.9067 15.8477 71.65C15.5303 71.3887 15.353 71.02 15.3157 70.544H15.9317C15.9643 70.824 16.0787 71.0527 16.2747 71.23C16.4707 71.4073 16.732 71.496 17.0587 71.496C17.3853 71.496 17.6327 71.412 17.8007 71.244C17.9733 71.0713 18.0597 70.8497 18.0597 70.579C18.0597 70.229 17.943 69.977 17.7097 69.823C17.4763 69.669 17.124 69.592 16.6527 69.592H16.4917V69.06H16.6597C17.089 69.0553 17.4133 68.9853 17.6327 68.85C17.852 68.71 17.9617 68.4953 17.9617 68.206C17.9617 67.9587 17.88 67.7603 17.7167 67.611C17.558 67.4617 17.3293 67.387 17.0307 67.387C16.7413 67.387 16.508 67.4617 16.3307 67.611C16.1533 67.7603 16.0483 67.961 16.0157 68.213H15.3927ZM19.5287 69.417C19.5287 68.6143 19.6594 67.989 19.9207 67.541C20.1821 67.0883 20.6394 66.862 21.2927 66.862C21.9414 66.862 22.3964 67.0883 22.6577 67.541C22.9191 67.989 23.0497 68.6143 23.0497 69.417C23.0497 70.2337 22.9191 70.8683 22.6577 71.321C22.3964 71.7737 21.9414 72 21.2927 72C20.6394 72 20.1821 71.7737 19.9207 71.321C19.6594 70.8683 19.5287 70.2337 19.5287 69.417ZM22.4197 69.417C22.4197 69.011 22.3917 68.668 22.3357 68.388C22.2844 68.1033 22.1747 67.8747 22.0067 67.702C21.8434 67.5293 21.6054 67.443 21.2927 67.443C20.9754 67.443 20.7327 67.5293 20.5647 67.702C20.4014 67.8747 20.2917 68.1033 20.2357 68.388C20.1844 68.668 20.1587 69.011 20.1587 69.417C20.1587 69.837 20.1844 70.1893 20.2357 70.474C20.2917 70.7587 20.4014 70.9873 20.5647 71.16C20.7327 71.3327 20.9754 71.419 21.2927 71.419C21.6054 71.419 21.8434 71.3327 22.0067 71.16C22.1747 70.9873 22.2844 70.7587 22.3357 70.474C22.3917 70.1893 22.4197 69.837 22.4197 69.417Z" fill="black" fill-opacity="0.54"/>
<path d="M15.3927 46.213C15.4253 45.7837 15.591 45.4477 15.8897 45.205C16.1883 44.9623 16.5757 44.841 17.0517 44.841C17.369 44.841 17.642 44.8993 17.8707 45.016C18.104 45.128 18.279 45.282 18.3957 45.478C18.517 45.674 18.5777 45.8957 18.5777 46.143C18.5777 46.4323 18.4937 46.682 18.3257 46.892C18.1623 47.102 17.9477 47.2373 17.6817 47.298V47.333C17.985 47.4077 18.2253 47.5547 18.4027 47.774C18.58 47.9933 18.6687 48.2803 18.6687 48.635C18.6687 48.901 18.608 49.1413 18.4867 49.356C18.3653 49.566 18.1833 49.7317 17.9407 49.853C17.698 49.9743 17.4063 50.035 17.0657 50.035C16.571 50.035 16.165 49.9067 15.8477 49.65C15.5303 49.3887 15.353 49.02 15.3157 48.544H15.9317C15.9643 48.824 16.0787 49.0527 16.2747 49.23C16.4707 49.4073 16.732 49.496 17.0587 49.496C17.3853 49.496 17.6327 49.412 17.8007 49.244C17.9733 49.0713 18.0597 48.8497 18.0597 48.579C18.0597 48.229 17.943 47.977 17.7097 47.823C17.4763 47.669 17.124 47.592 16.6527 47.592H16.4917V47.06H16.6597C17.089 47.0553 17.4133 46.9853 17.6327 46.85C17.852 46.71 17.9617 46.4953 17.9617 46.206C17.9617 45.9587 17.88 45.7603 17.7167 45.611C17.558 45.4617 17.3293 45.387 17.0307 45.387C16.7413 45.387 16.508 45.4617 16.3307 45.611C16.1533 45.7603 16.0483 45.961 16.0157 46.213H15.3927ZM22.7557 45.492H20.2987V47.088C20.4061 46.9387 20.5647 46.8173 20.7747 46.724C20.9847 46.626 21.2111 46.577 21.4537 46.577C21.8411 46.577 22.1561 46.6587 22.3987 46.822C22.6414 46.9807 22.8141 47.1883 22.9167 47.445C23.0241 47.697 23.0777 47.9653 23.0777 48.25C23.0777 48.586 23.0147 48.887 22.8887 49.153C22.7627 49.419 22.5691 49.629 22.3077 49.783C22.0511 49.937 21.7314 50.014 21.3487 50.014C20.8587 50.014 20.4621 49.888 20.1587 49.636C19.8554 49.384 19.6711 49.048 19.6057 48.628H20.2287C20.2894 48.894 20.4177 49.1017 20.6137 49.251C20.8097 49.4003 21.0571 49.475 21.3557 49.475C21.7244 49.475 22.0021 49.3653 22.1887 49.146C22.3754 48.922 22.4687 48.628 22.4687 48.264C22.4687 47.9 22.3754 47.62 22.1887 47.424C22.0021 47.2233 21.7267 47.123 21.3627 47.123C21.1154 47.123 20.8984 47.1837 20.7117 47.305C20.5297 47.4217 20.3967 47.5827 20.3127 47.788H19.7107V44.932H22.7557V45.492Z" fill="black" fill-opacity="0.54"/>
<rect x="33.9727" y="47" width="11" height="156" fill="#FF9A9A"/>
<rect x="56.9727" y="68" width="10" height="135" fill="#FFC7C7"/>
<rect x="76.9727" y="133" width="12" height="70" fill="#FF9A9A"/>
<rect x="98.9727" y="113" width="12" height="90" fill="#FFC7C7"/>
<rect x="120.973" y="152" width="10" height="51" fill="#FF9A9A"/>
<rect x="142.973" y="79" width="11" height="124" fill="#FFC7C7"/>
<rect x="164.973" y="60" width="10" height="143" fill="#FF9A9A"/>
<rect x="11" y="10" width="62" height="13" rx="5" fill="#FFBBBB"/>
<path d="M27.1604 13.121V18H26.5234V13.121H27.1604ZM28.883 14.878C29.0137 14.6493 29.205 14.4627 29.457 14.318C29.709 14.1733 29.996 14.101 30.318 14.101C30.6634 14.101 30.9737 14.1827 31.249 14.346C31.5244 14.5093 31.7414 14.7403 31.9 15.039C32.0587 15.333 32.138 15.676 32.138 16.068C32.138 16.4553 32.0587 16.8007 31.9 17.104C31.7414 17.4073 31.522 17.643 31.242 17.811C30.9667 17.979 30.6587 18.063 30.318 18.063C29.9867 18.063 29.695 17.9907 29.443 17.846C29.1957 17.7013 29.009 17.517 28.883 17.293V18H28.246V12.82H28.883V14.878ZM31.487 16.068C31.487 15.7787 31.4287 15.5267 31.312 15.312C31.1954 15.0973 31.0367 14.934 30.836 14.822C30.64 14.71 30.423 14.654 30.185 14.654C29.9517 14.654 29.7347 14.7123 29.534 14.829C29.338 14.941 29.1794 15.1067 29.058 15.326C28.9414 15.5407 28.883 15.7903 28.883 16.075C28.883 16.3643 28.9414 16.6187 29.058 16.838C29.1794 17.0527 29.338 17.2183 29.534 17.335C29.7347 17.447 29.9517 17.503 30.185 17.503C30.423 17.503 30.64 17.447 30.836 17.335C31.0367 17.2183 31.1954 17.0527 31.312 16.838C31.4287 16.6187 31.487 16.362 31.487 16.068ZM36.3785 14.164V18H35.7415V17.433C35.6202 17.629 35.4498 17.783 35.2305 17.895C35.0158 18.0023 34.7778 18.056 34.5165 18.056C34.2178 18.056 33.9495 17.9953 33.7115 17.874C33.4735 17.748 33.2845 17.5613 33.1445 17.314C33.0092 17.0667 32.9415 16.7657 32.9415 16.411V14.164H33.5715V16.327C33.5715 16.705 33.6672 16.9967 33.8585 17.202C34.0498 17.4027 34.3112 17.503 34.6425 17.503C34.9832 17.503 35.2515 17.398 35.4475 17.188C35.6435 16.978 35.7415 16.6723 35.7415 16.271V14.164H36.3785ZM43.0793 13.121V18H42.4423V15.788H39.9573V18H39.3203V13.121H39.9573V15.263H42.4423V13.121H43.0793ZM43.9289 16.068C43.9289 15.676 44.0083 15.333 44.1669 15.039C44.3256 14.7403 44.5426 14.5093 44.8179 14.346C45.0979 14.1827 45.4083 14.101 45.7489 14.101C46.0849 14.101 46.3766 14.1733 46.6239 14.318C46.8713 14.4627 47.0556 14.6447 47.1769 14.864V14.164H47.8209V18H47.1769V17.286C47.0509 17.51 46.8619 17.6967 46.6099 17.846C46.3626 17.9907 46.0733 18.063 45.7419 18.063C45.4013 18.063 45.0933 17.979 44.8179 17.811C44.5426 17.643 44.3256 17.4073 44.1669 17.104C44.0083 16.8007 43.9289 16.4553 43.9289 16.068ZM47.1769 16.075C47.1769 15.7857 47.1186 15.5337 47.0019 15.319C46.8853 15.1043 46.7266 14.941 46.5259 14.829C46.3299 14.7123 46.1129 14.654 45.8749 14.654C45.6369 14.654 45.4199 14.71 45.2239 14.822C45.0279 14.934 44.8716 15.0973 44.7549 15.312C44.6383 15.5267 44.5799 15.7787 44.5799 16.068C44.5799 16.362 44.6383 16.6187 44.7549 16.838C44.8716 17.0527 45.0279 17.2183 45.2239 17.335C45.4199 17.447 45.6369 17.503 45.8749 17.503C46.1129 17.503 46.3299 17.447 46.5259 17.335C46.7266 17.2183 46.8853 17.0527 47.0019 16.838C47.1186 16.6187 47.1769 16.3643 47.1769 16.075ZM53.5104 14.094C53.8091 14.094 54.0751 14.157 54.3084 14.283C54.5417 14.4043 54.7261 14.5887 54.8614 14.836C54.9967 15.0833 55.0644 15.3843 55.0644 15.739V18H54.4344V15.83C54.4344 15.4473 54.3387 15.1557 54.1474 14.955C53.9607 14.7497 53.7064 14.647 53.3844 14.647C53.0531 14.647 52.7894 14.7543 52.5934 14.969C52.3974 15.179 52.2994 15.4847 52.2994 15.886V18H51.6694V15.83C51.6694 15.4473 51.5737 15.1557 51.3824 14.955C51.1957 14.7497 50.9414 14.647 50.6194 14.647C50.2881 14.647 50.0244 14.7543 49.8284 14.969C49.6324 15.179 49.5344 15.4847 49.5344 15.886V18H48.8974V14.164H49.5344V14.717C49.6604 14.5163 49.8284 14.3623 50.0384 14.255C50.2531 14.1477 50.4887 14.094 50.7454 14.094C51.0674 14.094 51.3521 14.1663 51.5994 14.311C51.8467 14.4557 52.0311 14.668 52.1524 14.948C52.2597 14.6773 52.4371 14.4673 52.6844 14.318C52.9317 14.1687 53.2071 14.094 53.5104 14.094ZM56.4383 13.541C56.317 13.541 56.2143 13.499 56.1303 13.415C56.0463 13.331 56.0043 13.2283 56.0043 13.107C56.0043 12.9857 56.0463 12.883 56.1303 12.799C56.2143 12.715 56.317 12.673 56.4383 12.673C56.555 12.673 56.653 12.715 56.7323 12.799C56.8163 12.883 56.8583 12.9857 56.8583 13.107C56.8583 13.2283 56.8163 13.331 56.7323 13.415C56.653 13.499 56.555 13.541 56.4383 13.541ZM56.7463 14.164V18H56.1093V14.164H56.7463ZM58.469 12.82V18H57.832V12.82H58.469Z" fill="black"/>
<g filter="url(#filter1_d_381_1891)">
<rect x="4" y="0.925293" width="297.234" height="237.266" rx="5" fill="#FFF4F4"/>
</g>
<path d="M15.4067 196.417C15.4067 195.614 15.5373 194.989 15.7987 194.541C16.06 194.088 16.5173 193.862 17.1707 193.862C17.8193 193.862 18.2743 194.088 18.5357 194.541C18.797 194.989 18.9277 195.614 18.9277 196.417C18.9277 197.234 18.797 197.868 18.5357 198.321C18.2743 198.774 17.8193 199 17.1707 199C16.5173 199 16.06 198.774 15.7987 198.321C15.5373 197.868 15.4067 197.234 15.4067 196.417ZM18.2977 196.417C18.2977 196.011 18.2697 195.668 18.2137 195.388C18.1623 195.103 18.0527 194.875 17.8847 194.702C17.7213 194.529 17.4833 194.443 17.1707 194.443C16.8533 194.443 16.6107 194.529 16.4427 194.702C16.2793 194.875 16.1697 195.103 16.1137 195.388C16.0623 195.668 16.0367 196.011 16.0367 196.417C16.0367 196.837 16.0623 197.189 16.1137 197.474C16.1697 197.759 16.2793 197.987 16.4427 198.16C16.6107 198.333 16.8533 198.419 17.1707 198.419C17.4833 198.419 17.7213 198.333 17.8847 198.16C18.0527 197.987 18.1623 197.759 18.2137 197.474C18.2697 197.189 18.2977 196.837 18.2977 196.417Z" fill="black" fill-opacity="0.54"/>
<path d="M36.5087 208.121V211.726C36.5087 212.127 36.385 212.449 36.1377 212.692C35.8904 212.93 35.5637 213.049 35.1577 213.049C34.747 213.049 34.418 212.928 34.1707 212.685C33.9234 212.438 33.7997 212.102 33.7997 211.677H34.4367C34.4414 211.915 34.502 212.109 34.6187 212.258C34.74 212.407 34.9197 212.482 35.1577 212.482C35.3957 212.482 35.573 212.412 35.6897 212.272C35.8064 212.127 35.8647 211.945 35.8647 211.726V208.121H36.5087ZM37.5256 211.068C37.5256 210.676 37.6049 210.333 37.7636 210.039C37.9223 209.74 38.1393 209.509 38.4146 209.346C38.6946 209.183 39.0049 209.101 39.3456 209.101C39.6816 209.101 39.9733 209.173 40.2206 209.318C40.4679 209.463 40.6523 209.645 40.7736 209.864V209.164H41.4176V213H40.7736V212.286C40.6476 212.51 40.4586 212.697 40.2066 212.846C39.9593 212.991 39.6699 213.063 39.3386 213.063C38.9979 213.063 38.6899 212.979 38.4146 212.811C38.1393 212.643 37.9223 212.407 37.7636 212.104C37.6049 211.801 37.5256 211.455 37.5256 211.068ZM40.7736 211.075C40.7736 210.786 40.7153 210.534 40.5986 210.319C40.4819 210.104 40.3233 209.941 40.1226 209.829C39.9266 209.712 39.7096 209.654 39.4716 209.654C39.2336 209.654 39.0166 209.71 38.8206 209.822C38.6246 209.934 38.4683 210.097 38.3516 210.312C38.2349 210.527 38.1766 210.779 38.1766 211.068C38.1766 211.362 38.2349 211.619 38.3516 211.838C38.4683 212.053 38.6246 212.218 38.8206 212.335C39.0166 212.447 39.2336 212.503 39.4716 212.503C39.7096 212.503 39.9266 212.447 40.1226 212.335C40.3233 212.218 40.4819 212.053 40.5986 211.838C40.7153 211.619 40.7736 211.364 40.7736 211.075ZM44.3631 209.094C44.8297 209.094 45.2077 209.236 45.4971 209.521C45.7864 209.801 45.9311 210.207 45.9311 210.739V213H45.3011V210.83C45.3011 210.447 45.2054 210.156 45.0141 209.955C44.8227 209.75 44.5614 209.647 44.2301 209.647C43.8941 209.647 43.6257 209.752 43.4251 209.962C43.2291 210.172 43.1311 210.478 43.1311 210.879V213H42.4941V209.164H43.1311V209.71C43.2571 209.514 43.4274 209.362 43.6421 209.255C43.8614 209.148 44.1017 209.094 44.3631 209.094Z" fill="black" fill-opacity="0.54"/>
<path d="M57.9703 208.121V208.639H55.8493V210.284H57.5713V210.802H55.8493V213H55.2123V208.121H57.9703ZM62.2397 210.935C62.2397 211.056 62.2327 211.185 62.2187 211.32H59.1527C59.176 211.698 59.3044 211.994 59.5377 212.209C59.7757 212.419 60.0627 212.524 60.3987 212.524C60.674 212.524 60.9027 212.461 61.0847 212.335C61.2714 212.204 61.402 212.032 61.4767 211.817H62.1627C62.06 212.186 61.8547 212.487 61.5467 212.72C61.2387 212.949 60.856 213.063 60.3987 213.063C60.0347 213.063 59.708 212.981 59.4187 212.818C59.134 212.655 58.91 212.424 58.7467 212.125C58.5834 211.822 58.5017 211.472 58.5017 211.075C58.5017 210.678 58.581 210.331 58.7397 210.032C58.8984 209.733 59.12 209.505 59.4047 209.346C59.694 209.183 60.0254 209.101 60.3987 209.101C60.7627 209.101 61.0847 209.18 61.3647 209.339C61.6447 209.498 61.8594 209.717 62.0087 209.997C62.1627 210.272 62.2397 210.585 62.2397 210.935ZM61.5817 210.802C61.5817 210.559 61.528 210.352 61.4207 210.179C61.3134 210.002 61.1664 209.869 60.9797 209.78C60.7977 209.687 60.5947 209.64 60.3707 209.64C60.0487 209.64 59.7734 209.743 59.5447 209.948C59.3207 210.153 59.1924 210.438 59.1597 210.802H61.5817ZM63.7175 209.878C63.8482 209.649 64.0395 209.463 64.2915 209.318C64.5435 209.173 64.8305 209.101 65.1525 209.101C65.4978 209.101 65.8082 209.183 66.0835 209.346C66.3588 209.509 66.5758 209.74 66.7345 210.039C66.8932 210.333 66.9725 210.676 66.9725 211.068C66.9725 211.455 66.8932 211.801 66.7345 212.104C66.5758 212.407 66.3565 212.643 66.0765 212.811C65.8012 212.979 65.4932 213.063 65.1525 213.063C64.8212 213.063 64.5295 212.991 64.2775 212.846C64.0302 212.701 63.8435 212.517 63.7175 212.293V213H63.0805V207.82H63.7175V209.878ZM66.3215 211.068C66.3215 210.779 66.2632 210.527 66.1465 210.312C66.0298 210.097 65.8712 209.934 65.6705 209.822C65.4745 209.71 65.2575 209.654 65.0195 209.654C64.7862 209.654 64.5692 209.712 64.3685 209.829C64.1725 209.941 64.0138 210.107 63.8925 210.326C63.7758 210.541 63.7175 210.79 63.7175 211.075C63.7175 211.364 63.7758 211.619 63.8925 211.838C64.0138 212.053 64.1725 212.218 64.3685 212.335C64.5692 212.447 64.7862 212.503 65.0195 212.503C65.2575 212.503 65.4745 212.447 65.6705 212.335C65.8712 212.218 66.0298 212.053 66.1465 211.838C66.2632 211.619 66.3215 211.362 66.3215 211.068Z" fill="black" fill-opacity="0.54"/>
<path d="M82.2751 208.156V213H81.6381V209.388L80.0281 213H79.5801L77.9631 209.381V213H77.3261V208.156H78.0121L79.8041 212.16L81.5961 208.156H82.2751ZM83.1174 211.068C83.1174 210.676 83.1967 210.333 83.3554 210.039C83.5141 209.74 83.7311 209.509 84.0064 209.346C84.2864 209.183 84.5967 209.101 84.9374 209.101C85.2734 209.101 85.5651 209.173 85.8124 209.318C86.0597 209.463 86.2441 209.645 86.3654 209.864V209.164H87.0094V213H86.3654V212.286C86.2394 212.51 86.0504 212.697 85.7984 212.846C85.5511 212.991 85.2617 213.063 84.9304 213.063C84.5897 213.063 84.2817 212.979 84.0064 212.811C83.7311 212.643 83.5141 212.407 83.3554 212.104C83.1967 211.801 83.1174 211.455 83.1174 211.068ZM86.3654 211.075C86.3654 210.786 86.3071 210.534 86.1904 210.319C86.0737 210.104 85.9151 209.941 85.7144 209.829C85.5184 209.712 85.3014 209.654 85.0634 209.654C84.8254 209.654 84.6084 209.71 84.4124 209.822C84.2164 209.934 84.0601 210.097 83.9434 210.312C83.8267 210.527 83.7684 210.779 83.7684 211.068C83.7684 211.362 83.8267 211.619 83.9434 211.838C84.0601 212.053 84.2164 212.218 84.4124 212.335C84.6084 212.447 84.8254 212.503 85.0634 212.503C85.3014 212.503 85.5184 212.447 85.7144 212.335C85.9151 212.218 86.0737 212.053 86.1904 211.838C86.3071 211.619 86.3654 211.364 86.3654 211.075ZM88.7229 209.787C88.8349 209.568 88.9935 209.397 89.1989 209.276C89.4089 209.155 89.6632 209.094 89.9619 209.094V209.752H89.7939C89.0799 209.752 88.7229 210.139 88.7229 210.914V213H88.0859V209.164H88.7229V209.787Z" fill="black" fill-opacity="0.54"/>
<path d="M101.866 211.915H99.7384L99.3464 213H98.6744L100.438 208.149H101.173L102.93 213H102.258L101.866 211.915ZM101.684 211.397L100.802 208.933L99.9204 211.397H101.684ZM104.336 209.871C104.462 209.652 104.649 209.47 104.896 209.325C105.148 209.176 105.44 209.101 105.771 209.101C106.112 209.101 106.42 209.183 106.695 209.346C106.975 209.509 107.194 209.74 107.353 210.039C107.512 210.333 107.591 210.676 107.591 211.068C107.591 211.455 107.512 211.801 107.353 212.104C107.194 212.407 106.975 212.643 106.695 212.811C106.42 212.979 106.112 213.063 105.771 213.063C105.444 213.063 105.155 212.991 104.903 212.846C104.656 212.697 104.467 212.512 104.336 212.293V214.82H103.699V209.164H104.336V209.871ZM106.94 211.068C106.94 210.779 106.882 210.527 106.765 210.312C106.648 210.097 106.49 209.934 106.289 209.822C106.093 209.71 105.876 209.654 105.638 209.654C105.405 209.654 105.188 209.712 104.987 209.829C104.791 209.941 104.632 210.107 104.511 210.326C104.394 210.541 104.336 210.79 104.336 211.075C104.336 211.364 104.394 211.619 104.511 211.838C104.632 212.053 104.791 212.218 104.987 212.335C105.188 212.447 105.405 212.503 105.638 212.503C105.876 212.503 106.093 212.447 106.289 212.335C106.49 212.218 106.648 212.053 106.765 211.838C106.882 211.619 106.94 211.362 106.94 211.068ZM109.067 209.787C109.179 209.568 109.337 209.397 109.543 209.276C109.753 209.155 110.007 209.094 110.306 209.094V209.752H110.138C109.424 209.752 109.067 210.139 109.067 210.914V213H108.43V209.164H109.067V209.787Z" fill="black" fill-opacity="0.54"/>
<path d="M125.914 208.156V213H125.277V209.388L123.667 213H123.219L121.602 209.381V213H120.965V208.156H121.651L123.443 212.16L125.235 208.156H125.914ZM130.495 210.935C130.495 211.056 130.488 211.185 130.474 211.32H127.408C127.431 211.698 127.559 211.994 127.793 212.209C128.031 212.419 128.318 212.524 128.654 212.524C128.929 212.524 129.158 212.461 129.34 212.335C129.526 212.204 129.657 212.032 129.732 211.817H130.418C130.315 212.186 130.11 212.487 129.802 212.72C129.494 212.949 129.111 213.063 128.654 213.063C128.29 213.063 127.963 212.981 127.674 212.818C127.389 212.655 127.165 212.424 127.002 212.125C126.838 211.822 126.757 211.472 126.757 211.075C126.757 210.678 126.836 210.331 126.995 210.032C127.153 209.733 127.375 209.505 127.66 209.346C127.949 209.183 128.28 209.101 128.654 209.101C129.018 209.101 129.34 209.18 129.62 209.339C129.9 209.498 130.114 209.717 130.264 209.997C130.418 210.272 130.495 210.585 130.495 210.935ZM129.837 210.802C129.837 210.559 129.783 210.352 129.676 210.179C129.568 210.002 129.421 209.869 129.235 209.78C129.053 209.687 128.85 209.64 128.626 209.64C128.304 209.64 128.028 209.743 127.8 209.948C127.576 210.153 127.447 210.438 127.415 210.802H129.837ZM131.664 208.541C131.543 208.541 131.44 208.499 131.356 208.415C131.272 208.331 131.23 208.228 131.23 208.107C131.23 207.986 131.272 207.883 131.356 207.799C131.44 207.715 131.543 207.673 131.664 207.673C131.781 207.673 131.879 207.715 131.958 207.799C132.042 207.883 132.084 207.986 132.084 208.107C132.084 208.228 132.042 208.331 131.958 208.415C131.879 208.499 131.781 208.541 131.664 208.541ZM131.972 209.164V213H131.335V209.164H131.972Z" fill="black" fill-opacity="0.54"/>
<path d="M144.135 208.121V211.726C144.135 212.127 144.011 212.449 143.764 212.692C143.517 212.93 143.19 213.049 142.784 213.049C142.373 213.049 142.044 212.928 141.797 212.685C141.55 212.438 141.426 212.102 141.426 211.677H142.063C142.068 211.915 142.128 212.109 142.245 212.258C142.366 212.407 142.546 212.482 142.784 212.482C143.022 212.482 143.199 212.412 143.316 212.272C143.433 212.127 143.491 211.945 143.491 211.726V208.121H144.135ZM148.792 209.164V213H148.155V212.433C148.034 212.629 147.863 212.783 147.644 212.895C147.429 213.002 147.191 213.056 146.93 213.056C146.631 213.056 146.363 212.995 146.125 212.874C145.887 212.748 145.698 212.561 145.558 212.314C145.423 212.067 145.355 211.766 145.355 211.411V209.164H145.985V211.327C145.985 211.705 146.081 211.997 146.272 212.202C146.463 212.403 146.725 212.503 147.056 212.503C147.397 212.503 147.665 212.398 147.861 212.188C148.057 211.978 148.155 211.672 148.155 211.271V209.164H148.792ZM151.737 209.094C152.203 209.094 152.581 209.236 152.871 209.521C153.16 209.801 153.305 210.207 153.305 210.739V213H152.675V210.83C152.675 210.447 152.579 210.156 152.388 209.955C152.196 209.75 151.935 209.647 151.604 209.647C151.268 209.647 150.999 209.752 150.799 209.962C150.603 210.172 150.505 210.478 150.505 210.879V213H149.868V209.164H150.505V209.71C150.631 209.514 150.801 209.362 151.016 209.255C151.235 209.148 151.475 209.094 151.737 209.094Z" fill="black" fill-opacity="0.54"/>
<path d="M168.013 208.121V211.726C168.013 212.127 167.889 212.449 167.642 212.692C167.394 212.93 167.068 213.049 166.662 213.049C166.251 213.049 165.922 212.928 165.675 212.685C165.427 212.438 165.304 212.102 165.304 211.677H165.941C165.945 211.915 166.006 212.109 166.123 212.258C166.244 212.407 166.424 212.482 166.662 212.482C166.9 212.482 167.077 212.412 167.194 212.272C167.31 212.127 167.369 211.945 167.369 211.726V208.121H168.013ZM172.67 209.164V213H172.033V212.433C171.911 212.629 171.741 212.783 171.522 212.895C171.307 213.002 171.069 213.056 170.808 213.056C170.509 213.056 170.241 212.995 170.003 212.874C169.765 212.748 169.576 212.561 169.436 212.314C169.3 212.067 169.233 211.766 169.233 211.411V209.164H169.863V211.327C169.863 211.705 169.958 211.997 170.15 212.202C170.341 212.403 170.602 212.503 170.934 212.503C171.274 212.503 171.543 212.398 171.739 212.188C171.935 211.978 172.033 211.672 172.033 211.271V209.164H172.67ZM174.382 207.82V213H173.745V207.82H174.382Z" fill="black" fill-opacity="0.54"/>
<path d="M187.843 211.915H185.715L185.323 213H184.651L186.415 208.149H187.15L188.907 213H188.235L187.843 211.915ZM187.661 211.397L186.779 208.933L185.897 211.397H187.661ZM191.258 209.101C191.59 209.101 191.879 209.173 192.126 209.318C192.378 209.463 192.565 209.645 192.686 209.864V209.164H193.33V213.084C193.33 213.434 193.256 213.744 193.106 214.015C192.957 214.29 192.742 214.505 192.462 214.659C192.187 214.813 191.865 214.89 191.496 214.89C190.992 214.89 190.572 214.771 190.236 214.533C189.9 214.295 189.702 213.971 189.641 213.56H190.271C190.341 213.793 190.486 213.98 190.705 214.12C190.925 214.265 191.188 214.337 191.496 214.337C191.846 214.337 192.131 214.227 192.35 214.008C192.574 213.789 192.686 213.481 192.686 213.084V212.279C192.56 212.503 192.374 212.69 192.126 212.839C191.879 212.988 191.59 213.063 191.258 213.063C190.918 213.063 190.607 212.979 190.327 212.811C190.052 212.643 189.835 212.407 189.676 212.104C189.518 211.801 189.438 211.455 189.438 211.068C189.438 210.676 189.518 210.333 189.676 210.039C189.835 209.74 190.052 209.509 190.327 209.346C190.607 209.183 190.918 209.101 191.258 209.101ZM192.686 211.075C192.686 210.786 192.628 210.534 192.511 210.319C192.395 210.104 192.236 209.941 192.035 209.829C191.839 209.712 191.622 209.654 191.384 209.654C191.146 209.654 190.929 209.71 190.733 209.822C190.537 209.934 190.381 210.097 190.264 210.312C190.148 210.527 190.089 210.779 190.089 211.068C190.089 211.362 190.148 211.619 190.264 211.838C190.381 212.053 190.537 212.218 190.733 212.335C190.929 212.447 191.146 212.503 191.384 212.503C191.622 212.503 191.839 212.447 192.035 212.335C192.236 212.218 192.395 212.053 192.511 211.838C192.628 211.619 192.686 211.364 192.686 211.075ZM195.765 213.063C195.471 213.063 195.207 213.014 194.974 212.916C194.74 212.813 194.556 212.673 194.421 212.496C194.285 212.314 194.211 212.106 194.197 211.873H194.855C194.873 212.064 194.962 212.221 195.121 212.342C195.284 212.463 195.496 212.524 195.758 212.524C196 212.524 196.192 212.47 196.332 212.363C196.472 212.256 196.542 212.12 196.542 211.957C196.542 211.789 196.467 211.665 196.318 211.586C196.168 211.502 195.937 211.42 195.625 211.341C195.34 211.266 195.107 211.192 194.925 211.117C194.747 211.038 194.593 210.923 194.463 210.774C194.337 210.62 194.274 210.419 194.274 210.172C194.274 209.976 194.332 209.796 194.449 209.633C194.565 209.47 194.731 209.341 194.946 209.248C195.16 209.15 195.405 209.101 195.681 209.101C196.105 209.101 196.448 209.208 196.71 209.423C196.971 209.638 197.111 209.932 197.13 210.305H196.493C196.479 210.104 196.397 209.943 196.248 209.822C196.103 209.701 195.907 209.64 195.66 209.64C195.431 209.64 195.249 209.689 195.114 209.787C194.978 209.885 194.911 210.013 194.911 210.172C194.911 210.298 194.95 210.403 195.03 210.487C195.114 210.566 195.216 210.632 195.338 210.683C195.464 210.73 195.636 210.783 195.856 210.844C196.131 210.919 196.355 210.993 196.528 211.068C196.7 211.138 196.847 211.245 196.969 211.39C197.095 211.535 197.16 211.724 197.165 211.957C197.165 212.167 197.106 212.356 196.99 212.524C196.873 212.692 196.707 212.825 196.493 212.923C196.283 213.016 196.04 213.063 195.765 213.063Z" fill="black" fill-opacity="0.54"/>
<path d="M208.469 213.049C208.147 213.049 207.857 212.993 207.601 212.881C207.349 212.764 207.15 212.606 207.006 212.405C206.861 212.2 206.786 211.964 206.782 211.698H207.461C207.484 211.927 207.577 212.12 207.741 212.279C207.909 212.433 208.151 212.51 208.469 212.51C208.772 212.51 209.01 212.435 209.183 212.286C209.36 212.132 209.449 211.936 209.449 211.698C209.449 211.511 209.397 211.36 209.295 211.243C209.192 211.126 209.064 211.038 208.91 210.977C208.756 210.916 208.548 210.851 208.287 210.781C207.965 210.697 207.706 210.613 207.51 210.529C207.318 210.445 207.153 210.314 207.013 210.137C206.877 209.955 206.81 209.712 206.81 209.409C206.81 209.143 206.877 208.907 207.013 208.702C207.148 208.497 207.337 208.338 207.58 208.226C207.827 208.114 208.109 208.058 208.427 208.058C208.884 208.058 209.257 208.172 209.547 208.401C209.841 208.63 210.006 208.933 210.044 209.311H209.344C209.32 209.124 209.222 208.961 209.05 208.821C208.877 208.676 208.648 208.604 208.364 208.604C208.098 208.604 207.881 208.674 207.713 208.814C207.545 208.949 207.461 209.141 207.461 209.388C207.461 209.565 207.51 209.71 207.608 209.822C207.71 209.934 207.834 210.02 207.979 210.081C208.128 210.137 208.336 210.202 208.602 210.277C208.924 210.366 209.183 210.454 209.379 210.543C209.575 210.627 209.743 210.76 209.883 210.942C210.023 211.119 210.093 211.362 210.093 211.67C210.093 211.908 210.03 212.132 209.904 212.342C209.778 212.552 209.591 212.722 209.344 212.853C209.096 212.984 208.805 213.049 208.469 213.049ZM214.53 210.935C214.53 211.056 214.523 211.185 214.509 211.32H211.443C211.467 211.698 211.595 211.994 211.828 212.209C212.066 212.419 212.353 212.524 212.689 212.524C212.965 212.524 213.193 212.461 213.375 212.335C213.562 212.204 213.693 212.032 213.767 211.817H214.453C214.351 212.186 214.145 212.487 213.837 212.72C213.529 212.949 213.147 213.063 212.689 213.063C212.325 213.063 211.999 212.981 211.709 212.818C211.425 212.655 211.201 212.424 211.037 212.125C210.874 211.822 210.792 211.472 210.792 211.075C210.792 210.678 210.872 210.331 211.03 210.032C211.189 209.733 211.411 209.505 211.695 209.346C211.985 209.183 212.316 209.101 212.689 209.101C213.053 209.101 213.375 209.18 213.655 209.339C213.935 209.498 214.15 209.717 214.299 209.997C214.453 210.272 214.53 210.585 214.53 210.935ZM213.872 210.802C213.872 210.559 213.819 210.352 213.711 210.179C213.604 210.002 213.457 209.869 213.27 209.78C213.088 209.687 212.885 209.64 212.661 209.64C212.339 209.64 212.064 209.743 211.835 209.948C211.611 210.153 211.483 210.438 211.45 210.802H213.872ZM216.008 209.871C216.134 209.652 216.321 209.47 216.568 209.325C216.82 209.176 217.112 209.101 217.443 209.101C217.784 209.101 218.092 209.183 218.367 209.346C218.647 209.509 218.866 209.74 219.025 210.039C219.184 210.333 219.263 210.676 219.263 211.068C219.263 211.455 219.184 211.801 219.025 212.104C218.866 212.407 218.647 212.643 218.367 212.811C218.092 212.979 217.784 213.063 217.443 213.063C217.116 213.063 216.827 212.991 216.575 212.846C216.328 212.697 216.139 212.512 216.008 212.293V214.82H215.371V209.164H216.008V209.871ZM218.612 211.068C218.612 210.779 218.554 210.527 218.437 210.312C218.32 210.097 218.162 209.934 217.961 209.822C217.765 209.71 217.548 209.654 217.31 209.654C217.077 209.654 216.86 209.712 216.659 209.829C216.463 209.941 216.304 210.107 216.183 210.326C216.066 210.541 216.008 210.79 216.008 211.075C216.008 211.364 216.066 211.619 216.183 211.838C216.304 212.053 216.463 212.218 216.659 212.335C216.86 212.447 217.077 212.503 217.31 212.503C217.548 212.503 217.765 212.447 217.961 212.335C218.162 212.218 218.32 212.053 218.437 211.838C218.554 211.619 218.612 211.362 218.612 211.068Z" fill="black" fill-opacity="0.54"/>
<path d="M231.396 213.049C230.943 213.049 230.53 212.944 230.157 212.734C229.784 212.519 229.487 212.223 229.268 211.845C229.053 211.462 228.946 211.033 228.946 210.557C228.946 210.081 229.053 209.654 229.268 209.276C229.487 208.893 229.784 208.597 230.157 208.387C230.53 208.172 230.943 208.065 231.396 208.065C231.853 208.065 232.269 208.172 232.642 208.387C233.015 208.597 233.309 208.891 233.524 209.269C233.739 209.647 233.846 210.076 233.846 210.557C233.846 211.038 233.739 211.467 233.524 211.845C233.309 212.223 233.015 212.519 232.642 212.734C232.269 212.944 231.853 213.049 231.396 213.049ZM231.396 212.496C231.737 212.496 232.042 212.417 232.313 212.258C232.588 212.099 232.803 211.873 232.957 211.579C233.116 211.285 233.195 210.944 233.195 210.557C233.195 210.165 233.116 209.824 232.957 209.535C232.803 209.241 232.591 209.015 232.32 208.856C232.049 208.697 231.741 208.618 231.396 208.618C231.051 208.618 230.743 208.697 230.472 208.856C230.201 209.015 229.987 209.241 229.828 209.535C229.674 209.824 229.597 210.165 229.597 210.557C229.597 210.944 229.674 211.285 229.828 211.579C229.987 211.873 230.201 212.099 230.472 212.258C230.747 212.417 231.055 212.496 231.396 212.496ZM236.829 213L235.324 211.306V213H234.687V207.82H235.324V210.865L236.801 209.164H237.69L235.884 211.075L237.697 213H236.829ZM239.066 209.689V211.95C239.066 212.137 239.106 212.27 239.185 212.349C239.265 212.424 239.402 212.461 239.598 212.461H240.067V213H239.493C239.139 213 238.873 212.918 238.695 212.755C238.518 212.592 238.429 212.323 238.429 211.95V209.689H237.932V209.164H238.429V208.198H239.066V209.164H240.067V209.689H239.066Z" fill="black" fill-opacity="0.54"/>
<path d="M254.186 213H253.549L250.987 209.115V213H250.35V208.114H250.987L253.549 211.992V208.114H254.186V213ZM256.945 213.063C256.586 213.063 256.259 212.981 255.965 212.818C255.676 212.655 255.447 212.424 255.279 212.125C255.116 211.822 255.034 211.472 255.034 211.075C255.034 210.683 255.118 210.338 255.286 210.039C255.459 209.736 255.692 209.505 255.986 209.346C256.28 209.183 256.609 209.101 256.973 209.101C257.337 209.101 257.666 209.183 257.96 209.346C258.254 209.505 258.485 209.733 258.653 210.032C258.826 210.331 258.912 210.678 258.912 211.075C258.912 211.472 258.823 211.822 258.646 212.125C258.473 212.424 258.238 212.655 257.939 212.818C257.64 212.981 257.309 213.063 256.945 213.063ZM256.945 212.503C257.174 212.503 257.388 212.449 257.589 212.342C257.79 212.235 257.951 212.074 258.072 211.859C258.198 211.644 258.261 211.383 258.261 211.075C258.261 210.767 258.2 210.506 258.079 210.291C257.958 210.076 257.799 209.918 257.603 209.815C257.407 209.708 257.195 209.654 256.966 209.654C256.733 209.654 256.518 209.708 256.322 209.815C256.131 209.918 255.977 210.076 255.86 210.291C255.743 210.506 255.685 210.767 255.685 211.075C255.685 211.388 255.741 211.651 255.853 211.866C255.97 212.081 256.124 212.242 256.315 212.349C256.506 212.452 256.716 212.503 256.945 212.503ZM261.177 212.412L262.367 209.164H263.046L261.541 213H260.799L259.294 209.164H259.98L261.177 212.412Z" fill="black" fill-opacity="0.54"/>
<path d="M273.557 208.121C274.089 208.121 274.549 208.221 274.936 208.422C275.328 208.618 275.627 208.9 275.832 209.269C276.042 209.638 276.147 210.072 276.147 210.571C276.147 211.07 276.042 211.504 275.832 211.873C275.627 212.237 275.328 212.517 274.936 212.713C274.549 212.904 274.089 213 273.557 213H272.038V208.121H273.557ZM273.557 212.475C274.187 212.475 274.668 212.309 274.999 211.978C275.33 211.642 275.496 211.173 275.496 210.571C275.496 209.964 275.328 209.491 274.992 209.15C274.661 208.809 274.182 208.639 273.557 208.639H272.675V212.475H273.557ZM280.487 210.935C280.487 211.056 280.48 211.185 280.466 211.32H277.4C277.424 211.698 277.552 211.994 277.785 212.209C278.023 212.419 278.31 212.524 278.646 212.524C278.922 212.524 279.15 212.461 279.332 212.335C279.519 212.204 279.65 212.032 279.724 211.817H280.41C280.308 212.186 280.102 212.487 279.794 212.72C279.486 212.949 279.104 213.063 278.646 213.063C278.282 213.063 277.956 212.981 277.666 212.818C277.382 212.655 277.158 212.424 276.994 212.125C276.831 211.822 276.749 211.472 276.749 211.075C276.749 210.678 276.829 210.331 276.987 210.032C277.146 209.733 277.368 209.505 277.652 209.346C277.942 209.183 278.273 209.101 278.646 209.101C279.01 209.101 279.332 209.18 279.612 209.339C279.892 209.498 280.107 209.717 280.256 209.997C280.41 210.272 280.487 210.585 280.487 210.935ZM279.829 210.802C279.829 210.559 279.776 210.352 279.668 210.179C279.561 210.002 279.414 209.869 279.227 209.78C279.045 209.687 278.842 209.64 278.618 209.64C278.296 209.64 278.021 209.743 277.792 209.948C277.568 210.153 277.44 210.438 277.407 210.802H279.829ZM282.686 213.063C282.392 213.063 282.128 213.014 281.895 212.916C281.662 212.813 281.477 212.673 281.342 212.496C281.207 212.314 281.132 212.106 281.118 211.873H281.776C281.795 212.064 281.883 212.221 282.042 212.342C282.205 212.463 282.418 212.524 282.679 212.524C282.922 212.524 283.113 212.47 283.253 212.363C283.393 212.256 283.463 212.12 283.463 211.957C283.463 211.789 283.388 211.665 283.239 211.586C283.09 211.502 282.859 211.42 282.546 211.341C282.261 211.266 282.028 211.192 281.846 211.117C281.669 211.038 281.515 210.923 281.384 210.774C281.258 210.62 281.195 210.419 281.195 210.172C281.195 209.976 281.253 209.796 281.37 209.633C281.487 209.47 281.652 209.341 281.867 209.248C282.082 209.15 282.327 209.101 282.602 209.101C283.027 209.101 283.37 209.208 283.631 209.423C283.892 209.638 284.032 209.932 284.051 210.305H283.414C283.4 210.104 283.318 209.943 283.169 209.822C283.024 209.701 282.828 209.64 282.581 209.64C282.352 209.64 282.17 209.689 282.035 209.787C281.9 209.885 281.832 210.013 281.832 210.172C281.832 210.298 281.872 210.403 281.951 210.487C282.035 210.566 282.138 210.632 282.259 210.683C282.385 210.73 282.558 210.783 282.777 210.844C283.052 210.919 283.276 210.993 283.449 211.068C283.622 211.138 283.769 211.245 283.89 211.39C284.016 211.535 284.081 211.724 284.086 211.957C284.086 212.167 284.028 212.356 283.911 212.524C283.794 212.692 283.629 212.825 283.414 212.923C283.204 213.016 282.961 213.063 282.686 213.063Z" fill="black" fill-opacity="0.54"/>
<path d="M18.6337 174.492H16.1767V176.088C16.284 175.939 16.4427 175.817 16.6527 175.724C16.8627 175.626 17.089 175.577 17.3317 175.577C17.719 175.577 18.034 175.659 18.2767 175.822C18.5193 175.981 18.692 176.188 18.7947 176.445C18.902 176.697 18.9557 176.965 18.9557 177.25C18.9557 177.586 18.8927 177.887 18.7667 178.153C18.6407 178.419 18.447 178.629 18.1857 178.783C17.929 178.937 17.6093 179.014 17.2267 179.014C16.7367 179.014 16.34 178.888 16.0367 178.636C15.7333 178.384 15.549 178.048 15.4837 177.628H16.1067C16.1673 177.894 16.2957 178.102 16.4917 178.251C16.6877 178.4 16.935 178.475 17.2337 178.475C17.6023 178.475 17.88 178.365 18.0667 178.146C18.2533 177.922 18.3467 177.628 18.3467 177.264C18.3467 176.9 18.2533 176.62 18.0667 176.424C17.88 176.223 17.6047 176.123 17.2407 176.123C16.9933 176.123 16.7763 176.184 16.5897 176.305C16.4077 176.422 16.2747 176.583 16.1907 176.788H15.5887V173.932H18.6337V174.492Z" fill="black" fill-opacity="0.54"/>
<path d="M15.2387 152.52V151.939H16.5547V157H15.9107V152.52H15.2387ZM17.6488 154.417C17.6488 153.614 17.7795 152.989 18.0408 152.541C18.3022 152.088 18.7595 151.862 19.4128 151.862C20.0615 151.862 20.5165 152.088 20.7778 152.541C21.0392 152.989 21.1698 153.614 21.1698 154.417C21.1698 155.234 21.0392 155.868 20.7778 156.321C20.5165 156.774 20.0615 157 19.4128 157C18.7595 157 18.3022 156.774 18.0408 156.321C17.7795 155.868 17.6488 155.234 17.6488 154.417ZM20.5398 154.417C20.5398 154.011 20.5118 153.668 20.4558 153.388C20.4045 153.103 20.2948 152.875 20.1268 152.702C19.9635 152.529 19.7255 152.443 19.4128 152.443C19.0955 152.443 18.8528 152.529 18.6848 152.702C18.5215 152.875 18.4118 153.103 18.3558 153.388C18.3045 153.668 18.2788 154.011 18.2788 154.417C18.2788 154.837 18.3045 155.189 18.3558 155.474C18.4118 155.759 18.5215 155.987 18.6848 156.16C18.8528 156.333 19.0955 156.419 19.4128 156.419C19.7255 156.419 19.9635 156.333 20.1268 156.16C20.2948 155.987 20.4045 155.759 20.4558 155.474C20.5118 155.189 20.5398 154.837 20.5398 154.417Z" fill="black" fill-opacity="0.54"/>
<path d="M15.2387 131.52V130.939H16.5547V136H15.9107V131.52H15.2387ZM20.8758 131.492H18.4188V133.088C18.5262 132.939 18.6848 132.817 18.8948 132.724C19.1048 132.626 19.3312 132.577 19.5738 132.577C19.9612 132.577 20.2762 132.659 20.5188 132.822C20.7615 132.981 20.9342 133.188 21.0368 133.445C21.1442 133.697 21.1978 133.965 21.1978 134.25C21.1978 134.586 21.1348 134.887 21.0088 135.153C20.8828 135.419 20.6892 135.629 20.4278 135.783C20.1712 135.937 19.8515 136.014 19.4688 136.014C18.9788 136.014 18.5822 135.888 18.2788 135.636C17.9755 135.384 17.7912 135.048 17.7258 134.628H18.3488C18.4095 134.894 18.5378 135.102 18.7338 135.251C18.9298 135.4 19.1772 135.475 19.4758 135.475C19.8445 135.475 20.1222 135.365 20.3088 135.146C20.4955 134.922 20.5888 134.628 20.5888 134.264C20.5888 133.9 20.4955 133.62 20.3088 133.424C20.1222 133.223 19.8468 133.123 19.4828 133.123C19.2355 133.123 19.0185 133.184 18.8318 133.305C18.6498 133.422 18.5168 133.583 18.4328 133.788H17.8308V130.932H20.8758V131.492Z" fill="black" fill-opacity="0.54"/>
<path d="M15.3297 113.489C15.9223 113.013 16.3867 112.623 16.7227 112.32C17.0587 112.012 17.341 111.692 17.5697 111.361C17.803 111.025 17.9197 110.696 17.9197 110.374C17.9197 110.071 17.845 109.833 17.6957 109.66C17.551 109.483 17.3153 109.394 16.9887 109.394C16.6713 109.394 16.424 109.494 16.2467 109.695C16.074 109.891 15.9807 110.155 15.9667 110.486H15.3507C15.3693 109.963 15.528 109.56 15.8267 109.275C16.1253 108.99 16.5103 108.848 16.9817 108.848C17.4623 108.848 17.8427 108.981 18.1227 109.247C18.4073 109.513 18.5497 109.879 18.5497 110.346C18.5497 110.733 18.433 111.111 18.1997 111.48C17.971 111.844 17.7097 112.166 17.4157 112.446C17.1217 112.721 16.746 113.043 16.2887 113.412H18.6967V113.944H15.3297V113.489ZM19.433 111.417C19.433 110.614 19.5637 109.989 19.825 109.541C20.0864 109.088 20.5437 108.862 21.197 108.862C21.8457 108.862 22.3007 109.088 22.562 109.541C22.8234 109.989 22.954 110.614 22.954 111.417C22.954 112.234 22.8234 112.868 22.562 113.321C22.3007 113.774 21.8457 114 21.197 114C20.5437 114 20.0864 113.774 19.825 113.321C19.5637 112.868 19.433 112.234 19.433 111.417ZM22.324 111.417C22.324 111.011 22.296 110.668 22.24 110.388C22.1887 110.103 22.079 109.875 21.911 109.702C21.7477 109.529 21.5097 109.443 21.197 109.443C20.8797 109.443 20.637 109.529 20.469 109.702C20.3057 109.875 20.196 110.103 20.14 110.388C20.0887 110.668 20.063 111.011 20.063 111.417C20.063 111.837 20.0887 112.189 20.14 112.474C20.196 112.759 20.3057 112.987 20.469 113.16C20.637 113.333 20.8797 113.419 21.197 113.419C21.5097 113.419 21.7477 113.333 21.911 113.16C22.079 112.987 22.1887 112.759 22.24 112.474C22.296 112.189 22.324 111.837 22.324 111.417Z" fill="black" fill-opacity="0.54"/>
<path d="M15.3297 92.489C15.9223 92.013 16.3867 91.6233 16.7227 91.32C17.0587 91.012 17.341 90.6923 17.5697 90.361C17.803 90.025 17.9197 89.696 17.9197 89.374C17.9197 89.0707 17.845 88.8327 17.6957 88.66C17.551 88.4827 17.3153 88.394 16.9887 88.394C16.6713 88.394 16.424 88.4943 16.2467 88.695C16.074 88.891 15.9807 89.1547 15.9667 89.486H15.3507C15.3693 88.9633 15.528 88.5597 15.8267 88.275C16.1253 87.9903 16.5103 87.848 16.9817 87.848C17.4623 87.848 17.8427 87.981 18.1227 88.247C18.4073 88.513 18.5497 88.8793 18.5497 89.346C18.5497 89.7333 18.433 90.1113 18.1997 90.48C17.971 90.844 17.7097 91.166 17.4157 91.446C17.1217 91.7213 16.746 92.0433 16.2887 92.412H18.6967V92.944H15.3297V92.489ZM22.66 88.492H20.203V90.088C20.3104 89.9387 20.469 89.8173 20.679 89.724C20.889 89.626 21.1154 89.577 21.358 89.577C21.7454 89.577 22.0604 89.6587 22.303 89.822C22.5457 89.9807 22.7184 90.1883 22.821 90.445C22.9284 90.697 22.982 90.9653 22.982 91.25C22.982 91.586 22.919 91.887 22.793 92.153C22.667 92.419 22.4734 92.629 22.212 92.783C21.9554 92.937 21.6357 93.014 21.253 93.014C20.763 93.014 20.3664 92.888 20.063 92.636C19.7597 92.384 19.5754 92.048 19.51 91.628H20.133C20.1937 91.894 20.322 92.1017 20.518 92.251C20.714 92.4003 20.9614 92.475 21.26 92.475C21.6287 92.475 21.9064 92.3653 22.093 92.146C22.2797 91.922 22.373 91.628 22.373 91.264C22.373 90.9 22.2797 90.62 22.093 90.424C21.9064 90.2233 21.631 90.123 21.267 90.123C21.0197 90.123 20.8027 90.1837 20.616 90.305C20.434 90.4217 20.301 90.5827 20.217 90.788H19.615V87.932H22.66V88.492Z" fill="black" fill-opacity="0.54"/>
<path d="M15.3927 68.213C15.4253 67.7837 15.591 67.4477 15.8897 67.205C16.1883 66.9623 16.5757 66.841 17.0517 66.841C17.369 66.841 17.642 66.8993 17.8707 67.016C18.104 67.128 18.279 67.282 18.3957 67.478C18.517 67.674 18.5777 67.8957 18.5777 68.143C18.5777 68.4323 18.4937 68.682 18.3257 68.892C18.1623 69.102 17.9477 69.2373 17.6817 69.298V69.333C17.985 69.4077 18.2253 69.5547 18.4027 69.774C18.58 69.9933 18.6687 70.2803 18.6687 70.635C18.6687 70.901 18.608 71.1413 18.4867 71.356C18.3653 71.566 18.1833 71.7317 17.9407 71.853C17.698 71.9743 17.4063 72.035 17.0657 72.035C16.571 72.035 16.165 71.9067 15.8477 71.65C15.5303 71.3887 15.353 71.02 15.3157 70.544H15.9317C15.9643 70.824 16.0787 71.0527 16.2747 71.23C16.4707 71.4073 16.732 71.496 17.0587 71.496C17.3853 71.496 17.6327 71.412 17.8007 71.244C17.9733 71.0713 18.0597 70.8497 18.0597 70.579C18.0597 70.229 17.943 69.977 17.7097 69.823C17.4763 69.669 17.124 69.592 16.6527 69.592H16.4917V69.06H16.6597C17.089 69.0553 17.4133 68.9853 17.6327 68.85C17.852 68.71 17.9617 68.4953 17.9617 68.206C17.9617 67.9587 17.88 67.7603 17.7167 67.611C17.558 67.4617 17.3293 67.387 17.0307 67.387C16.7413 67.387 16.508 67.4617 16.3307 67.611C16.1533 67.7603 16.0483 67.961 16.0157 68.213H15.3927ZM19.5287 69.417C19.5287 68.6143 19.6594 67.989 19.9207 67.541C20.1821 67.0883 20.6394 66.862 21.2927 66.862C21.9414 66.862 22.3964 67.0883 22.6577 67.541C22.9191 67.989 23.0497 68.6143 23.0497 69.417C23.0497 70.2337 22.9191 70.8683 22.6577 71.321C22.3964 71.7737 21.9414 72 21.2927 72C20.6394 72 20.1821 71.7737 19.9207 71.321C19.6594 70.8683 19.5287 70.2337 19.5287 69.417ZM22.4197 69.417C22.4197 69.011 22.3917 68.668 22.3357 68.388C22.2844 68.1033 22.1747 67.8747 22.0067 67.702C21.8434 67.5293 21.6054 67.443 21.2927 67.443C20.9754 67.443 20.7327 67.5293 20.5647 67.702C20.4014 67.8747 20.2917 68.1033 20.2357 68.388C20.1844 68.668 20.1587 69.011 20.1587 69.417C20.1587 69.837 20.1844 70.1893 20.2357 70.474C20.2917 70.7587 20.4014 70.9873 20.5647 71.16C20.7327 71.3327 20.9754 71.419 21.2927 71.419C21.6054 71.419 21.8434 71.3327 22.0067 71.16C22.1747 70.9873 22.2844 70.7587 22.3357 70.474C22.3917 70.1893 22.4197 69.837 22.4197 69.417Z" fill="black" fill-opacity="0.54"/>
<path d="M15.3927 46.213C15.4253 45.7837 15.591 45.4477 15.8897 45.205C16.1883 44.9623 16.5757 44.841 17.0517 44.841C17.369 44.841 17.642 44.8993 17.8707 45.016C18.104 45.128 18.279 45.282 18.3957 45.478C18.517 45.674 18.5777 45.8957 18.5777 46.143C18.5777 46.4323 18.4937 46.682 18.3257 46.892C18.1623 47.102 17.9477 47.2373 17.6817 47.298V47.333C17.985 47.4077 18.2253 47.5547 18.4027 47.774C18.58 47.9933 18.6687 48.2803 18.6687 48.635C18.6687 48.901 18.608 49.1413 18.4867 49.356C18.3653 49.566 18.1833 49.7317 17.9407 49.853C17.698 49.9743 17.4063 50.035 17.0657 50.035C16.571 50.035 16.165 49.9067 15.8477 49.65C15.5303 49.3887 15.353 49.02 15.3157 48.544H15.9317C15.9643 48.824 16.0787 49.0527 16.2747 49.23C16.4707 49.4073 16.732 49.496 17.0587 49.496C17.3853 49.496 17.6327 49.412 17.8007 49.244C17.9733 49.0713 18.0597 48.8497 18.0597 48.579C18.0597 48.229 17.943 47.977 17.7097 47.823C17.4763 47.669 17.124 47.592 16.6527 47.592H16.4917V47.06H16.6597C17.089 47.0553 17.4133 46.9853 17.6327 46.85C17.852 46.71 17.9617 46.4953 17.9617 46.206C17.9617 45.9587 17.88 45.7603 17.7167 45.611C17.558 45.4617 17.3293 45.387 17.0307 45.387C16.7413 45.387 16.508 45.4617 16.3307 45.611C16.1533 45.7603 16.0483 45.961 16.0157 46.213H15.3927ZM22.7557 45.492H20.2987V47.088C20.4061 46.9387 20.5647 46.8173 20.7747 46.724C20.9847 46.626 21.2111 46.577 21.4537 46.577C21.8411 46.577 22.1561 46.6587 22.3987 46.822C22.6414 46.9807 22.8141 47.1883 22.9167 47.445C23.0241 47.697 23.0777 47.9653 23.0777 48.25C23.0777 48.586 23.0147 48.887 22.8887 49.153C22.7627 49.419 22.5691 49.629 22.3077 49.783C22.0511 49.937 21.7314 50.014 21.3487 50.014C20.8587 50.014 20.4621 49.888 20.1587 49.636C19.8554 49.384 19.6711 49.048 19.6057 48.628H20.2287C20.2894 48.894 20.4177 49.1017 20.6137 49.251C20.8097 49.4003 21.0571 49.475 21.3557 49.475C21.7244 49.475 22.0021 49.3653 22.1887 49.146C22.3754 48.922 22.4687 48.628 22.4687 48.264C22.4687 47.9 22.3754 47.62 22.1887 47.424C22.0021 47.2233 21.7267 47.123 21.3627 47.123C21.1154 47.123 20.8984 47.1837 20.7117 47.305C20.5297 47.4217 20.3967 47.5827 20.3127 47.788H19.7107V44.932H22.7557V45.492Z" fill="black" fill-opacity="0.54"/>
<rect x="33.9727" y="47" width="11" height="156" fill="#FF9A9A"/>
<rect x="56.9727" y="68" width="10" height="135" fill="#FFC7C7"/>
<rect x="76.9727" y="133" width="12" height="70" fill="#FF9A9A"/>
<rect x="98.9727" y="113" width="12" height="90" fill="#FFC7C7"/>
<rect x="120.973" y="152" width="10" height="51" fill="#FF9A9A"/>
<rect x="142.973" y="79" width="11" height="124" fill="#FFC7C7"/>
<rect x="164.973" y="60" width="10" height="143" fill="#FF9A9A"/>
<rect x="185.973" y="85" width="11" height="118" fill="#FFC7C7"/>
<rect x="208.973" y="68" width="9" height="135" fill="#FF9A9A"/>
<rect x="228.973" y="47" width="12" height="156" fill="#FFC7C7"/>
<rect x="250.973" y="96" width="10" height="107" fill="#FF9A9A"/>
<rect x="272.973" y="85" width="10" height="118" fill="#FFC7C7"/>
<g filter="url(#filter2_d_381_1891)">
<path d="M252 14C252 10.6863 254.686 8 258 8H285C288.314 8 291 10.6863 291 14C291 17.3137 288.314 20 285 20H258C254.686 20 252 17.3137 252 14Z" fill="white"/>
<path d="M252.5 14C252.5 10.9624 254.962 8.5 258 8.5H285C288.038 8.5 290.5 10.9624 290.5 14C290.5 17.0376 288.038 19.5 285 19.5H258C254.962 19.5 252.5 17.0376 252.5 14Z" stroke="black" stroke-opacity="0.67"/>
</g>
<path d="M262.874 15.052C263.258 14.732 263.564 14.466 263.792 14.254C264.02 14.038 264.21 13.814 264.362 13.582C264.514 13.35 264.59 13.122 264.59 12.898C264.59 12.694 264.542 12.534 264.446 12.418C264.35 12.302 264.202 12.244 264.002 12.244C263.802 12.244 263.648 12.312 263.54 12.448C263.432 12.58 263.376 12.762 263.372 12.994H262.556C262.572 12.514 262.714 12.15 262.982 11.902C263.254 11.654 263.598 11.53 264.014 11.53C264.47 11.53 264.82 11.652 265.064 11.896C265.308 12.136 265.43 12.454 265.43 12.85C265.43 13.162 265.346 13.46 265.178 13.744C265.01 14.028 264.818 14.276 264.602 14.488C264.386 14.696 264.104 14.948 263.756 15.244H265.526V15.94H262.562V15.316L262.874 15.052ZM266.055 13.756C266.055 13.064 266.179 12.522 266.427 12.13C266.679 11.738 267.095 11.542 267.675 11.542C268.255 11.542 268.669 11.738 268.917 12.13C269.169 12.522 269.295 13.064 269.295 13.756C269.295 14.452 269.169 14.998 268.917 15.394C268.669 15.79 268.255 15.988 267.675 15.988C267.095 15.988 266.679 15.79 266.427 15.394C266.179 14.998 266.055 14.452 266.055 13.756ZM268.467 13.756C268.467 13.46 268.447 13.212 268.407 13.012C268.371 12.808 268.295 12.642 268.179 12.514C268.067 12.386 267.899 12.322 267.675 12.322C267.451 12.322 267.281 12.386 267.165 12.514C267.053 12.642 266.977 12.808 266.937 13.012C266.901 13.212 266.883 13.46 266.883 13.756C266.883 14.06 266.901 14.316 266.937 14.524C266.973 14.728 267.049 14.894 267.165 15.022C267.281 15.146 267.451 15.208 267.675 15.208C267.899 15.208 268.069 15.146 268.185 15.022C268.301 14.894 268.377 14.728 268.413 14.524C268.449 14.316 268.467 14.06 268.467 13.756ZM270.198 15.052C270.582 14.732 270.888 14.466 271.116 14.254C271.344 14.038 271.534 13.814 271.686 13.582C271.838 13.35 271.914 13.122 271.914 12.898C271.914 12.694 271.866 12.534 271.77 12.418C271.674 12.302 271.526 12.244 271.326 12.244C271.126 12.244 270.972 12.312 270.864 12.448C270.756 12.58 270.7 12.762 270.696 12.994H269.88C269.896 12.514 270.038 12.15 270.306 11.902C270.578 11.654 270.922 11.53 271.338 11.53C271.794 11.53 272.144 11.652 272.388 11.896C272.632 12.136 272.754 12.454 272.754 12.85C272.754 13.162 272.67 13.46 272.502 13.744C272.334 14.028 272.142 14.276 271.926 14.488C271.71 14.696 271.428 14.948 271.08 15.244H272.85V15.94H269.886V15.316L270.198 15.052ZM273.392 12.778C273.412 12.378 273.552 12.07 273.812 11.854C274.076 11.634 274.422 11.524 274.85 11.524C275.142 11.524 275.392 11.576 275.6 11.68C275.808 11.78 275.964 11.918 276.068 12.094C276.176 12.266 276.23 12.462 276.23 12.682C276.23 12.934 276.164 13.148 276.032 13.324C275.904 13.496 275.75 13.612 275.57 13.672V13.696C275.802 13.768 275.982 13.896 276.11 14.08C276.242 14.264 276.308 14.5 276.308 14.788C276.308 15.028 276.252 15.242 276.14 15.43C276.032 15.618 275.87 15.766 275.654 15.874C275.442 15.978 275.186 16.03 274.886 16.03C274.434 16.03 274.066 15.916 273.782 15.688C273.498 15.46 273.348 15.124 273.332 14.68H274.148C274.156 14.876 274.222 15.034 274.346 15.154C274.474 15.27 274.648 15.328 274.868 15.328C275.072 15.328 275.228 15.272 275.336 15.16C275.448 15.044 275.504 14.896 275.504 14.716C275.504 14.476 275.428 14.304 275.276 14.2C275.124 14.096 274.888 14.044 274.568 14.044H274.394V13.354H274.568C275.136 13.354 275.42 13.164 275.42 12.784C275.42 12.612 275.368 12.478 275.264 12.382C275.164 12.286 275.018 12.238 274.826 12.238C274.638 12.238 274.492 12.29 274.388 12.394C274.288 12.494 274.23 12.622 274.214 12.778H273.392Z" fill="#545454"/>
<ellipse cx="283.5" cy="13.9998" rx="0.375" ry="0.583333" stroke="#33363F" stroke-width="2" stroke-linecap="round"/>
<ellipse cx="281.25" cy="13.9998" rx="0.375" ry="0.583333" stroke="#33363F" stroke-width="2" stroke-linecap="round"/>
<ellipse cx="285.75" cy="13.9998" rx="0.375" ry="0.583333" stroke="#33363F" stroke-width="2" stroke-linecap="round"/>
<rect x="11" y="10" width="62" height="13" rx="5" fill="#FFBBBB"/>
<path d="M27.1604 13.121V18H26.5234V13.121H27.1604ZM28.883 14.878C29.0137 14.6493 29.205 14.4627 29.457 14.318C29.709 14.1733 29.996 14.101 30.318 14.101C30.6634 14.101 30.9737 14.1827 31.249 14.346C31.5244 14.5093 31.7414 14.7403 31.9 15.039C32.0587 15.333 32.138 15.676 32.138 16.068C32.138 16.4553 32.0587 16.8007 31.9 17.104C31.7414 17.4073 31.522 17.643 31.242 17.811C30.9667 17.979 30.6587 18.063 30.318 18.063C29.9867 18.063 29.695 17.9907 29.443 17.846C29.1957 17.7013 29.009 17.517 28.883 17.293V18H28.246V12.82H28.883V14.878ZM31.487 16.068C31.487 15.7787 31.4287 15.5267 31.312 15.312C31.1954 15.0973 31.0367 14.934 30.836 14.822C30.64 14.71 30.423 14.654 30.185 14.654C29.9517 14.654 29.7347 14.7123 29.534 14.829C29.338 14.941 29.1794 15.1067 29.058 15.326C28.9414 15.5407 28.883 15.7903 28.883 16.075C28.883 16.3643 28.9414 16.6187 29.058 16.838C29.1794 17.0527 29.338 17.2183 29.534 17.335C29.7347 17.447 29.9517 17.503 30.185 17.503C30.423 17.503 30.64 17.447 30.836 17.335C31.0367 17.2183 31.1954 17.0527 31.312 16.838C31.4287 16.6187 31.487 16.362 31.487 16.068ZM36.3785 14.164V18H35.7415V17.433C35.6202 17.629 35.4498 17.783 35.2305 17.895C35.0158 18.0023 34.7778 18.056 34.5165 18.056C34.2178 18.056 33.9495 17.9953 33.7115 17.874C33.4735 17.748 33.2845 17.5613 33.1445 17.314C33.0092 17.0667 32.9415 16.7657 32.9415 16.411V14.164H33.5715V16.327C33.5715 16.705 33.6672 16.9967 33.8585 17.202C34.0498 17.4027 34.3112 17.503 34.6425 17.503C34.9832 17.503 35.2515 17.398 35.4475 17.188C35.6435 16.978 35.7415 16.6723 35.7415 16.271V14.164H36.3785ZM43.0793 13.121V18H42.4423V15.788H39.9573V18H39.3203V13.121H39.9573V15.263H42.4423V13.121H43.0793ZM43.9289 16.068C43.9289 15.676 44.0083 15.333 44.1669 15.039C44.3256 14.7403 44.5426 14.5093 44.8179 14.346C45.0979 14.1827 45.4083 14.101 45.7489 14.101C46.0849 14.101 46.3766 14.1733 46.6239 14.318C46.8713 14.4627 47.0556 14.6447 47.1769 14.864V14.164H47.8209V18H47.1769V17.286C47.0509 17.51 46.8619 17.6967 46.6099 17.846C46.3626 17.9907 46.0733 18.063 45.7419 18.063C45.4013 18.063 45.0933 17.979 44.8179 17.811C44.5426 17.643 44.3256 17.4073 44.1669 17.104C44.0083 16.8007 43.9289 16.4553 43.9289 16.068ZM47.1769 16.075C47.1769 15.7857 47.1186 15.5337 47.0019 15.319C46.8853 15.1043 46.7266 14.941 46.5259 14.829C46.3299 14.7123 46.1129 14.654 45.8749 14.654C45.6369 14.654 45.4199 14.71 45.2239 14.822C45.0279 14.934 44.8716 15.0973 44.7549 15.312C44.6383 15.5267 44.5799 15.7787 44.5799 16.068C44.5799 16.362 44.6383 16.6187 44.7549 16.838C44.8716 17.0527 45.0279 17.2183 45.2239 17.335C45.4199 17.447 45.6369 17.503 45.8749 17.503C46.1129 17.503 46.3299 17.447 46.5259 17.335C46.7266 17.2183 46.8853 17.0527 47.0019 16.838C47.1186 16.6187 47.1769 16.3643 47.1769 16.075ZM53.5104 14.094C53.8091 14.094 54.0751 14.157 54.3084 14.283C54.5417 14.4043 54.7261 14.5887 54.8614 14.836C54.9967 15.0833 55.0644 15.3843 55.0644 15.739V18H54.4344V15.83C54.4344 15.4473 54.3387 15.1557 54.1474 14.955C53.9607 14.7497 53.7064 14.647 53.3844 14.647C53.0531 14.647 52.7894 14.7543 52.5934 14.969C52.3974 15.179 52.2994 15.4847 52.2994 15.886V18H51.6694V15.83C51.6694 15.4473 51.5737 15.1557 51.3824 14.955C51.1957 14.7497 50.9414 14.647 50.6194 14.647C50.2881 14.647 50.0244 14.7543 49.8284 14.969C49.6324 15.179 49.5344 15.4847 49.5344 15.886V18H48.8974V14.164H49.5344V14.717C49.6604 14.5163 49.8284 14.3623 50.0384 14.255C50.2531 14.1477 50.4887 14.094 50.7454 14.094C51.0674 14.094 51.3521 14.1663 51.5994 14.311C51.8467 14.4557 52.0311 14.668 52.1524 14.948C52.2597 14.6773 52.4371 14.4673 52.6844 14.318C52.9317 14.1687 53.2071 14.094 53.5104 14.094ZM56.4383 13.541C56.317 13.541 56.2143 13.499 56.1303 13.415C56.0463 13.331 56.0043 13.2283 56.0043 13.107C56.0043 12.9857 56.0463 12.883 56.1303 12.799C56.2143 12.715 56.317 12.673 56.4383 12.673C56.555 12.673 56.653 12.715 56.7323 12.799C56.8163 12.883 56.8583 12.9857 56.8583 13.107C56.8583 13.2283 56.8163 13.331 56.7323 13.415C56.653 13.499 56.555 13.541 56.4383 13.541ZM56.7463 14.164V18H56.1093V14.164H56.7463ZM58.469 12.82V18H57.832V12.82H58.469Z" fill="black"/>
<defs>
<filter id="filter0_d_381_1891" x="0" y="0.925293" width="305.234" height="245.267" filterUnits="userSpaceOnUse" color-interpolation-filters="sRGB">
<feFlood flood-opacity="0" result="BackgroundImageFix"/>
<feColorMatrix in="SourceAlpha" type="matrix" values="0 0 0 0 0 0 0 0 0 0 0 0 0 0 0 0 0 0 127 0" result="hardAlpha"/>
<feOffset dy="4"/>
<feGaussianBlur stdDeviation="2"/>
<feComposite in2="hardAlpha" operator="out"/>
<feColorMatrix type="matrix" values="0 0 0 0 0 0 0 0 0 0 0 0 0 0 0 0 0 0 0.25 0"/>
<feBlend mode="normal" in2="BackgroundImageFix" result="effect1_dropShadow_381_1891"/>
<feBlend mode="normal" in="SourceGraphic" in2="effect1_dropShadow_381_1891" result="shape"/>
</filter>
<filter id="filter1_d_381_1891" x="0" y="0.925293" width="305.234" height="245.267" filterUnits="userSpaceOnUse" color-interpolation-filters="sRGB">
<feFlood flood-opacity="0" result="BackgroundImageFix"/>
<feColorMatrix in="SourceAlpha" type="matrix" values="0 0 0 0 0 0 0 0 0 0 0 0 0 0 0 0 0 0 127 0" result="hardAlpha"/>
<feOffset dy="4"/>
<feGaussianBlur stdDeviation="2"/>
<feComposite in2="hardAlpha" operator="out"/>
<feColorMatrix type="matrix" values="0 0 0 0 0 0 0 0 0 0 0 0 0 0 0 0 0 0 0.25 0"/>
<feBlend mode="normal" in2="BackgroundImageFix" result="effect1_dropShadow_381_1891"/>
<feBlend mode="normal" in="SourceGraphic" in2="effect1_dropShadow_381_1891" result="shape"/>
</filter>
<filter id="filter2_d_381_1891" x="248" y="8" width="47" height="20" filterUnits="userSpaceOnUse" color-interpolation-filters="sRGB">
<feFlood flood-opacity="0" result="BackgroundImageFix"/>
<feColorMatrix in="SourceAlpha" type="matrix" values="0 0 0 0 0 0 0 0 0 0 0 0 0 0 0 0 0 0 127 0" result="hardAlpha"/>
<feOffset dy="4"/>
<feGaussianBlur stdDeviation="2"/>
<feComposite in2="hardAlpha" operator="out"/>
<feColorMatrix type="matrix" values="0 0 0 0 0 0 0 0 0 0 0 0 0 0 0 0 0 0 0.25 0"/>
<feBlend mode="normal" in2="BackgroundImageFix" result="effect1_dropShadow_381_1891"/>
<feBlend mode="normal" in="SourceGraphic" in2="effect1_dropShadow_381_1891" result="shape"/>
</filter>
</defs>
</svg>
