<svg width="22" height="22" viewBox="0 0 22 22" fill="none" xmlns="http://www.w3.org/2000/svg">
<path d="M3.66675 7.15895C3.66675 6.62379 3.66675 6.35621 3.71764 6.13494C3.88931 5.3886 4.47209 4.80581 5.21844 4.63414C5.43971 4.58325 5.70728 4.58325 6.24244 4.58325C6.47267 4.58325 6.58779 4.58325 6.68722 4.60365C7.02109 4.67213 7.29709 4.90594 7.41953 5.22401C7.456 5.31873 7.47492 5.43228 7.51277 5.65938L7.56258 5.95825C7.64781 6.46964 7.69043 6.72533 7.82432 6.91334C7.92117 7.04933 8.05053 7.15891 8.20059 7.23209C8.40806 7.33325 8.66728 7.33325 9.18571 7.33325H12.8144C13.3329 7.33325 13.5921 7.33325 13.7996 7.23209C13.9496 7.15891 14.079 7.04933 14.1758 6.91334C14.3097 6.72533 14.3524 6.46964 14.4376 5.95825L14.4874 5.65938C14.5252 5.43228 14.5442 5.31873 14.5806 5.22401C14.7031 4.90594 14.9791 4.67213 15.3129 4.60365C15.4124 4.58325 15.5275 4.58325 15.7577 4.58325C16.2929 4.58325 16.5605 4.58325 16.7817 4.63414C17.5281 4.80581 18.1109 5.3886 18.2825 6.13494C18.3334 6.35621 18.3334 6.62379 18.3334 7.15895V15.2499C18.3334 17.1355 18.3334 18.0783 17.7476 18.6641C17.1618 19.2499 16.219 19.2499 14.3334 19.2499H7.66675C5.78113 19.2499 4.83832 19.2499 4.25253 18.6641C3.66675 18.0783 3.66675 17.1355 3.66675 15.2499V7.15895Z" fill="#FF5757"/>
<rect x="3.66675" y="4.58325" width="14.6667" height="14.6667" rx="2" stroke="#222222" stroke-width="1.2"/>
<path d="M14.6667 1.83325L14.6667 5.33325C14.6667 6.27606 14.6667 6.74746 14.3739 7.04036C14.081 7.33325 13.6096 7.33325 12.6667 7.33325L9.33342 7.33325C8.39061 7.33325 7.9192 7.33325 7.62631 7.04036C7.33341 6.74747 7.33341 6.27606 7.33341 5.33325L7.33342 1.83326" stroke="#222222" stroke-width="1.2" stroke-linecap="round"/>
<path d="M8.25 12.8333L13.75 12.8333" stroke="#222222" stroke-width="1.2" stroke-linecap="round"/>
</svg>
