<svg width="20" height="20" viewBox="0 0 20 20" fill="none" xmlns="http://www.w3.org/2000/svg">
<path d="M5 11.6667H5.56287C5.92989 11.6667 6.11339 11.6667 6.27174 11.7213C6.45751 11.7853 6.6203 11.9027 6.73978 12.0587C6.84163 12.1916 6.89966 12.3657 7.01572 12.7139L7.01572 12.7139L7.08333 12.9167L7.08334 12.9168C7.26493 13.4615 7.35572 13.7339 7.55249 13.9107C7.60578 13.9585 7.66407 14.0006 7.72634 14.036C7.95626 14.1667 8.24338 14.1667 8.81762 14.1667H11.1824C11.7566 14.1667 12.0437 14.1667 12.2737 14.036C12.3359 14.0006 12.3942 13.9585 12.4475 13.9107C12.6443 13.7339 12.7351 13.4615 12.9167 12.9167L12.9843 12.7139C13.1003 12.3657 13.1584 12.1916 13.2602 12.0587C13.3797 11.9027 13.5425 11.7853 13.7283 11.7213C13.8866 11.6667 14.0701 11.6667 14.4371 11.6667H15C15.4647 11.6667 15.697 11.6667 15.8902 11.6283C16.6836 11.4705 17.3038 10.8503 17.4616 10.0569C17.5 9.86373 17.5 9.6314 17.5 9.16675V13.5001C17.5 15.3857 17.5 16.3285 16.9142 16.9143C16.3284 17.5001 15.3856 17.5001 13.5 17.5001H6.5C4.61438 17.5001 3.67157 17.5001 3.08579 16.9143C2.5 16.3285 2.5 15.3857 2.5 13.5001V9.16675C2.5 9.6314 2.5 9.86373 2.53843 10.0569C2.69624 10.8503 3.31644 11.4705 4.10982 11.6283C4.30302 11.6667 4.53535 11.6667 5 11.6667Z" fill="#FF5757"/>
<path d="M2.5 9.16675V9.16675C2.5 9.6314 2.5 9.86373 2.53843 10.0569C2.69624 10.8503 3.31644 11.4705 4.10982 11.6283C4.30302 11.6667 4.53535 11.6667 5 11.6667H5.56287C5.92989 11.6667 6.11339 11.6667 6.27174 11.7213C6.45751 11.7853 6.6203 11.9027 6.73978 12.0587C6.84163 12.1916 6.89966 12.3657 7.01572 12.7139L7.08333 12.9167C7.26492 13.4615 7.35572 13.7339 7.55249 13.9107C7.60578 13.9585 7.66407 14.0006 7.72634 14.036C7.95626 14.1667 8.24338 14.1667 8.81762 14.1667H11.1824C11.7566 14.1667 12.0437 14.1667 12.2737 14.036C12.3359 14.0006 12.3942 13.9585 12.4475 13.9107C12.6443 13.7339 12.7351 13.4615 12.9167 12.9167L12.9843 12.7139C13.1003 12.3657 13.1584 12.1916 13.2602 12.0587C13.3797 11.9027 13.5425 11.7853 13.7283 11.7213C13.8866 11.6667 14.0701 11.6667 14.4371 11.6667H15C15.4647 11.6667 15.697 11.6667 15.8902 11.6283C16.6836 11.4705 17.3038 10.8503 17.4616 10.0569C17.5 9.86373 17.5 9.6314 17.5 9.16675V9.16675" stroke="#161513" stroke-width="1.2"/>
<path d="M6.66675 7.5L10.0001 10M10.0001 10L13.3334 7.5M10.0001 10L10.0001 1.66667" stroke="#161513" stroke-width="1.2"/>
<path d="M13.3333 4.16675H13.5C15.3856 4.16675 16.3284 4.16675 16.9142 4.75253C17.5 5.33832 17.5 6.28113 17.5 8.16675V13.5001C17.5 15.3857 17.5 16.3285 16.9142 16.9143C16.3284 17.5001 15.3856 17.5001 13.5 17.5001H6.5C4.61438 17.5001 3.67157 17.5001 3.08579 16.9143C2.5 16.3285 2.5 15.3857 2.5 13.5001V8.16675C2.5 6.28113 2.5 5.33832 3.08579 4.75253C3.67157 4.16675 4.61438 4.16675 6.5 4.16675H6.66667" stroke="#161513" stroke-width="1.2"/>
</svg>
