<svg width="20" height="20" viewBox="0 0 20 20" fill="none" xmlns="http://www.w3.org/2000/svg">
<path d="M6.66667 5.83325H2.5V15.4999C2.5 16.6045 3.39543 17.4999 4.5 17.4999H15.5C16.6046 17.4999 17.5 16.6045 17.5 15.4999V8.33325L16.6667 9.16659H9.16667L6.66667 5.83325Z" fill="#FF5757"/>
<path d="M2.5 7.3C2.5 5.61984 2.5 4.77976 2.82698 4.13803C3.1146 3.57354 3.57354 3.1146 4.13803 2.82698C4.77976 2.5 5.61984 2.5 7.3 2.5H12.7C14.3802 2.5 15.2202 2.5 15.862 2.82698C16.4265 3.1146 16.8854 3.57354 17.173 4.13803C17.5 4.77976 17.5 5.61984 17.5 7.3V12.7C17.5 14.3802 17.5 15.2202 17.173 15.862C16.8854 16.4265 16.4265 16.8854 15.862 17.173C15.2202 17.5 14.3802 17.5 12.7 17.5H7.3C5.61984 17.5 4.77976 17.5 4.13803 17.173C3.57354 16.8854 3.1146 16.4265 2.82698 15.862C2.5 15.2202 2.5 14.3802 2.5 12.7V7.3Z" stroke="#222222" stroke-width="1.2"/>
<path d="M2.5 5.83325H4.66667C5.64809 5.83325 6.1388 5.83325 6.56109 6.0444C6.98338 6.25554 7.27781 6.64811 7.86667 7.43325L7.96667 7.56659C8.55552 8.35172 8.84995 8.74429 9.27224 8.95544C9.69453 9.16658 10.1852 9.16658 11.1667 9.16658H15C15.4647 9.16658 15.697 9.16658 15.8902 9.12816C16.6836 8.97034 17.3038 8.35015 17.4616 7.55677C17.5 7.36357 17.5 7.13124 17.5 6.66659V6.66659" stroke="#222222" stroke-width="1.2"/>
<path d="M5.83325 13.3333H12.4999" stroke="#222222" stroke-width="1.2" stroke-linecap="round"/>
</svg>
