<svg width="92" height="24" viewBox="0 0 92 24" fill="none" xmlns="http://www.w3.org/2000/svg">
<rect y="3" width="92" height="19" rx="5" fill="#FF5757"/>
<path d="M40.5057 15V9.18182H41.7358V11.7472H41.8125L43.9062 9.18182H45.3807L43.2216 11.7869L45.4062 15H43.9347L42.3409 12.608L41.7358 13.3466V15H40.5057ZM47.6669 15.0852C47.218 15.0852 46.8317 14.9943 46.5078 14.8125C46.1858 14.6288 45.9377 14.3693 45.7635 14.0341C45.5893 13.697 45.5021 13.2983 45.5021 12.8381C45.5021 12.3892 45.5893 11.9953 45.7635 11.6562C45.9377 11.3172 46.183 11.053 46.4993 10.8636C46.8175 10.6742 47.1906 10.5795 47.6186 10.5795C47.9065 10.5795 48.1745 10.6259 48.4226 10.7188C48.6726 10.8097 48.8904 10.947 49.076 11.1307C49.2635 11.3144 49.4093 11.5455 49.5135 11.8239C49.6177 12.1004 49.6697 12.4242 49.6697 12.7955V13.1278H45.9851V12.3778H48.5305C48.5305 12.2036 48.4927 12.0492 48.4169 11.9148C48.3411 11.7803 48.236 11.6752 48.1016 11.5994C47.969 11.5218 47.8146 11.483 47.6385 11.483C47.4548 11.483 47.2919 11.5256 47.1499 11.6108C47.0097 11.6941 46.8999 11.8068 46.8203 11.9489C46.7408 12.089 46.7 12.2453 46.6982 12.4176V13.1307C46.6982 13.3466 46.7379 13.5331 46.8175 13.6903C46.8989 13.8475 47.0135 13.9688 47.1612 14.054C47.3089 14.1392 47.4841 14.1818 47.6868 14.1818C47.8213 14.1818 47.9444 14.1629 48.0561 14.125C48.1679 14.0871 48.2635 14.0303 48.343 13.9545C48.4226 13.8788 48.4832 13.786 48.5249 13.6761L49.6442 13.75C49.5874 14.0189 49.4709 14.2538 49.2947 14.4545C49.1205 14.6534 48.8951 14.8087 48.6186 14.9205C48.344 15.0303 48.0268 15.0852 47.6669 15.0852ZM51.6697 9.18182V15H50.4595V9.18182H51.6697ZM55.4375 13.142V10.6364H56.6477V15H55.4858V14.2074H55.4403C55.3419 14.4631 55.178 14.6686 54.9489 14.8239C54.7216 14.9792 54.4441 15.0568 54.1165 15.0568C53.8248 15.0568 53.5682 14.9905 53.3466 14.858C53.125 14.7254 52.9517 14.5369 52.8267 14.2926C52.7036 14.0483 52.6411 13.7557 52.6392 13.4148V10.6364H53.8494V13.1989C53.8513 13.4564 53.9205 13.66 54.0568 13.8097C54.1932 13.9593 54.3759 14.0341 54.6051 14.0341C54.7509 14.0341 54.8873 14.0009 55.0142 13.9347C55.1411 13.8665 55.2434 13.7661 55.321 13.6335C55.4006 13.5009 55.4394 13.3371 55.4375 13.142ZM58.8601 15.0824C58.5817 15.0824 58.3336 15.0341 58.1158 14.9375C57.898 14.839 57.7256 14.6941 57.5987 14.5028C57.4737 14.3097 57.4112 14.0691 57.4112 13.7812C57.4112 13.5388 57.4557 13.3352 57.5447 13.1705C57.6338 13.0057 57.755 12.8731 57.9084 12.7727C58.0618 12.6723 58.236 12.5966 58.4311 12.5455C58.6281 12.4943 58.8345 12.4583 59.0504 12.4375C59.3042 12.411 59.5088 12.3864 59.6641 12.3636C59.8194 12.339 59.9321 12.303 60.0021 12.2557C60.0722 12.2083 60.1072 12.1383 60.1072 12.0455V12.0284C60.1072 11.8485 60.0504 11.7093 59.9368 11.6108C59.825 11.5123 59.666 11.4631 59.4595 11.4631C59.2417 11.4631 59.0684 11.5114 58.9396 11.608C58.8108 11.7027 58.7256 11.822 58.6839 11.9659L57.5646 11.875C57.6214 11.6098 57.7332 11.3807 57.8999 11.1875C58.0665 10.9924 58.2815 10.8428 58.5447 10.7386C58.8099 10.6326 59.1167 10.5795 59.4652 10.5795C59.7076 10.5795 59.9396 10.608 60.1612 10.6648C60.3847 10.7216 60.5826 10.8097 60.755 10.929C60.9292 11.0483 61.0665 11.2017 61.1669 11.3892C61.2673 11.5748 61.3175 11.7973 61.3175 12.0568V15H60.1697V14.3949H60.1357C60.0656 14.5312 59.9718 14.6515 59.8544 14.7557C59.737 14.858 59.5959 14.9384 59.4311 14.9972C59.2663 15.054 59.076 15.0824 58.8601 15.0824ZM59.2067 14.2472C59.3847 14.2472 59.5419 14.2121 59.6783 14.142C59.8146 14.0701 59.9216 13.9735 59.9993 13.8523C60.0769 13.7311 60.1158 13.5937 60.1158 13.4403V12.9773C60.0779 13.0019 60.0258 13.0246 59.9595 13.0455C59.8951 13.0644 59.8222 13.0824 59.7408 13.0994C59.6593 13.1146 59.5779 13.1288 59.4964 13.142C59.415 13.1534 59.3411 13.1638 59.2749 13.1733C59.1328 13.1941 59.0088 13.2273 58.9027 13.2727C58.7966 13.3182 58.7143 13.3797 58.6555 13.4574C58.5968 13.5331 58.5675 13.6278 58.5675 13.7415C58.5675 13.9062 58.6271 14.0322 58.7464 14.1193C58.8677 14.2045 59.0211 14.2472 59.2067 14.2472ZM62.2564 15V10.6364H63.4297V11.3977H63.4751C63.5547 11.1269 63.6882 10.9223 63.8757 10.7841C64.0632 10.6439 64.2791 10.5739 64.5234 10.5739C64.584 10.5739 64.6494 10.5777 64.7195 10.5852C64.7895 10.5928 64.8511 10.6032 64.9041 10.6165V11.6903C64.8473 11.6733 64.7687 11.6581 64.6683 11.6449C64.5679 11.6316 64.4761 11.625 64.3928 11.625C64.2147 11.625 64.0556 11.6638 63.9155 11.7415C63.7772 11.8172 63.6674 11.9233 63.5859 12.0597C63.5064 12.196 63.4666 12.3532 63.4666 12.5312V15H62.2564Z" fill="white"/>
<path d="M27.0333 12C27.0333 9.62518 28.9584 7.7 31.3333 7.7C33.7081 7.7 35.6333 9.62518 35.6333 12C35.6333 14.3748 33.7081 16.3 31.3333 16.3C28.9584 16.3 27.0333 14.3748 27.0333 12Z" fill="#F2F1EF" stroke="#F2F1EF" stroke-width="0.6"/>
<path d="M27.3333 16.6189C28.144 17.087 29.0637 17.3334 29.9999 17.3334C30.9361 17.3334 31.8558 17.087 32.6666 16.6189C33.4774 16.1508 34.1506 15.4775 34.6187 14.6667C35.0868 13.856 35.3333 12.9363 35.3333 12.0001C35.3333 11.0639 35.0868 10.1442 34.6187 9.33341C34.1506 8.52265 33.4774 7.84938 32.6666 7.38128C31.8558 6.91318 30.9361 6.66675 29.9999 6.66675C29.0637 6.66675 28.144 6.91318 27.3333 7.38128" stroke="#161513" stroke-width="1.2"/>
<path d="M23.3333 12.0001L22.8647 11.6253L22.5649 12.0001L22.8647 12.3749L23.3333 12.0001ZM29.3333 12.6001C29.6646 12.6001 29.9333 12.3315 29.9333 12.0001C29.9333 11.6687 29.6646 11.4001 29.3333 11.4001V12.6001ZM25.5314 8.29193L22.8647 11.6253L23.8018 12.3749L26.4684 9.04157L25.5314 8.29193ZM22.8647 12.3749L25.5314 15.7082L26.4684 14.9586L23.8018 11.6253L22.8647 12.3749ZM23.3333 12.6001H29.3333V11.4001H23.3333V12.6001Z" fill="#161513"/>
</svg>
