<svg width="26" height="26" viewBox="0 0 26 26" fill="none" xmlns="http://www.w3.org/2000/svg">
<path d="M3.25 13C3.25 7.61522 7.61522 3.25 13 3.25C18.3848 3.25 22.75 7.61522 22.75 13C22.75 18.3848 18.3848 22.75 13 22.75C7.61522 22.75 3.25 18.3848 3.25 13Z" fill="white"/>
<circle cx="13.0001" cy="10.8333" r="4.33333" fill="#FF5757"/>
<path fill-rule="evenodd" clip-rule="evenodd" d="M19.7476 19.7804C19.8055 19.8769 19.7878 20.0002 19.7061 20.0776C17.9586 21.734 15.598 22.75 13.0001 22.75C10.4023 22.75 8.04175 21.734 6.2942 20.0777C6.21251 20.0003 6.19477 19.877 6.25269 19.7805C7.51105 17.684 10.0602 16.25 13.0002 16.25C15.9401 16.25 18.4892 17.684 19.7476 19.7804Z" fill="#FF5757"/>
</svg>
